<?xml version="1.0" encoding="UTF-8"?>
<svg xmlns="http://www.w3.org/2000/svg" id="uuid-1be42c7f-f0c6-44e5-9b5a-0dc382474004" viewBox="0 0 158.89 164.98">
  <path d="m23.93,78.43c1.96-29.41,25.09-52.79,53.73-53.68h1.8c8.91,0,17.67,2.21,25.52,6.42l17.82-17.8c-7.06-4.8-14.86-8.41-23.1-10.67C93.09.88,86.26-.02,79.41,0,35.57,0,0,36.91,0,82.49c0,6.04.65,12.07,1.91,17.98,1.84,8.56,5,16.79,9.37,24.38L79.45,34.11l-55.53,44.31h0Z" fill="#0ac17c"></path>
  <path d="m145.61,36.86c-4.31-6.76-9.59-12.84-15.67-18.06L24.44,142l121.17-105.14Z" fill="#3fa4d7"></path>
  <path d="m79.46,140.23c-7.69,0-15.3-1.63-22.3-4.82l-18.06,18.15c12.14,7.43,26.09,11.38,40.32,11.42,43.9,0,79.47-36.95,79.47-82.49.01-4.64-.37-9.28-1.14-13.86-1.43-8.84-4.26-17.38-8.4-25.32l-69.88,87.55,54.87-38.82c-3.99,24.94-23.44,44.51-47.73,47.73-2.37.31-4.75.46-7.14.46h0Z" fill="#333"></path>
</svg>
