<svg width="60" height="49" viewBox="0 0 60 49" fill="none" xmlns="http://www.w3.org/2000/svg">
<path d="M6.00005 33.9198C6.21412 33.6161 6.49687 33.3673 6.8253 33.1935C7.15372 33.0197 7.51853 32.926 7.89005 32.9198H44.33C44.4892 32.9198 44.6418 32.8566 44.7543 32.7441C44.8668 32.6316 44.93 32.479 44.93 32.3198C44.93 32.1607 44.8668 32.0081 44.7543 31.8956C44.6418 31.7831 44.4892 31.7198 44.33 31.7198H9.67005C9.03087 31.7198 8.41788 31.4659 7.96592 31.014C7.51396 30.562 7.26005 29.949 7.26005 29.3098V5.99984C7.25609 5.38405 7.37396 4.77356 7.60688 4.2035C7.8398 3.63344 8.18316 3.11508 8.6172 2.67824C9.05125 2.24141 9.5674 1.89474 10.136 1.65817C10.7045 1.42161 11.3142 1.29983 11.93 1.29984H48.1C48.7155 1.30115 49.3246 1.42383 49.8926 1.66086C50.4605 1.89789 50.9761 2.24462 51.4099 2.68119C51.8437 3.11775 52.1871 3.63559 52.4205 4.20505C52.6539 4.77451 52.7727 5.38442 52.77 5.99984V23.3298C52.77 23.489 52.8333 23.6416 52.9458 23.7541C53.0583 23.8666 53.2109 23.9298 53.37 23.9298C53.5292 23.9298 53.6818 23.8666 53.7943 23.7541C53.9068 23.6416 53.97 23.489 53.97 23.3298V5.99984C53.974 5.22599 53.8251 4.45897 53.532 3.74276C53.2389 3.02655 52.8073 2.37525 52.262 1.82619C51.7167 1.27713 51.0683 0.841121 50.3541 0.54316C49.6399 0.2452 48.8739 0.0911498 48.1 0.0898438H11.93C11.1557 0.0911539 10.3892 0.245133 9.67448 0.542972C8.95973 0.84081 8.31071 1.27666 7.76457 1.82559C7.21843 2.37451 6.78589 3.02574 6.49169 3.74201C6.19749 4.45827 6.04742 5.22552 6.05005 5.99984V29.3298C6.04695 30.2642 6.40527 31.1636 7.05005 31.8398C6.22239 32.037 5.49415 32.5272 5.00005 33.2198L0.680046 39.2198C0.296423 39.7662 0.0686337 40.4066 0.021072 41.0724C-0.0264897 41.7383 0.107968 42.4045 0.410046 42.9998C0.693735 43.5979 1.14121 44.1033 1.70053 44.4573C2.25986 44.8113 2.90811 44.9994 3.57005 44.9998H44.33C44.4771 44.9809 44.6122 44.909 44.7102 44.7977C44.8081 44.6863 44.8621 44.5431 44.8621 44.3948C44.8621 44.2466 44.8081 44.1034 44.7102 43.992C44.6122 43.8807 44.4771 43.8088 44.33 43.7898H3.57005C3.13456 43.7922 2.70728 43.6714 2.33748 43.4414C1.96769 43.2114 1.67045 42.8815 1.48005 42.4898C1.27003 42.0785 1.17758 41.6172 1.21287 41.1567C1.24816 40.6962 1.40981 40.2544 1.68005 39.8798L6.00005 33.9198Z" fill="#165DBA"/>
<path d="M59.4003 46.8101H58.4903V41.7601C58.4872 40.7049 58.1812 39.6727 57.6086 38.7864C57.036 37.9 56.2209 37.1967 55.2603 36.7601C56.2209 36.3234 57.036 35.6201 57.6086 34.7338C58.1812 33.8474 58.4872 32.8153 58.4903 31.7601V26.9201H59.4003C59.5474 26.9011 59.6825 26.8293 59.7804 26.7179C59.8783 26.6066 59.9323 26.4634 59.9323 26.3151C59.9323 26.1668 59.8783 26.0236 59.7804 25.9122C59.6825 25.8009 59.5474 25.729 59.4003 25.7101H45.8403C45.7543 25.699 45.667 25.7064 45.5841 25.7317C45.5012 25.7571 45.4246 25.7998 45.3595 25.857C45.2944 25.9143 45.2423 25.9847 45.2065 26.0637C45.1708 26.1427 45.1523 26.2284 45.1523 26.3151C45.1523 26.4018 45.1708 26.4875 45.2065 26.5664C45.2423 26.6454 45.2944 26.7159 45.3595 26.7731C45.4246 26.8304 45.5012 26.8731 45.5841 26.8984C45.667 26.9238 45.7543 26.9312 45.8403 26.9201H46.7403V31.7601C46.743 32.8167 47.05 33.8501 47.6246 34.7368C48.1992 35.6235 49.017 36.3259 49.9803 36.7601C49.017 37.1942 48.1992 37.8967 47.6246 38.7834C47.05 39.6701 46.743 40.7035 46.7403 41.7601V46.8101H45.8403C45.6812 46.8101 45.5285 46.8733 45.416 46.9858C45.3035 47.0983 45.2403 47.2509 45.2403 47.4101C45.2403 47.5692 45.3035 47.7218 45.416 47.8343C45.5285 47.9469 45.6812 48.0101 45.8403 48.0101H59.4003C59.5594 48.0101 59.712 47.9469 59.8246 47.8343C59.9371 47.7218 60.0003 47.5692 60.0003 47.4101C60.0003 47.2509 59.9371 47.0983 59.8246 46.9858C59.712 46.8733 59.5594 46.8101 59.4003 46.8101ZM48.0003 31.7601V26.9201H57.3403V31.7601C57.3376 32.8997 56.8838 33.9919 56.0779 34.7977C55.2721 35.6036 54.1799 36.0574 53.0403 36.0601H52.2903C51.1516 36.0574 50.0604 35.6032 49.2562 34.7971C48.4519 33.991 48.0003 32.8988 48.0003 31.7601ZM48.0003 41.7601C48.0003 40.6214 48.4519 39.5292 49.2562 38.723C50.0604 37.9169 51.1516 37.4627 52.2903 37.4601H53.0003C54.1399 37.4627 55.2321 37.9166 56.0379 38.7224C56.8438 39.5283 57.2976 40.6205 57.3003 41.7601V46.8101H48.0003V41.7601Z" fill="#165DBA"/>
</svg>
