<svg width="57" height="46" viewBox="0 0 57 46" fill="none" xmlns="http://www.w3.org/2000/svg">
<path d="M52.44 0H4.56C3.35061 0 2.19076 0.480427 1.33559 1.33559C0.480427 2.19076 0 3.35061 0 4.56V33.06C0 34.2694 0.480427 35.4292 1.33559 36.2844C2.19076 37.1396 3.35061 37.62 4.56 37.62H26.22V44.2776H19.2318C19.0806 44.2776 18.9356 44.3377 18.8287 44.4445C18.7219 44.5514 18.6618 44.6964 18.6618 44.8476C18.6647 44.9979 18.7257 45.1412 18.832 45.2474C18.9382 45.3537 19.0815 45.4147 19.2318 45.4176H37.7568C37.908 45.4176 38.053 45.3575 38.1599 45.2507C38.2667 45.1438 38.3268 44.9988 38.3268 44.8476C38.3268 44.6964 38.2667 44.5514 38.1599 44.4445C38.053 44.3377 37.908 44.2776 37.7568 44.2776H30.78V37.62H52.44C53.6494 37.62 54.8092 37.1396 55.6644 36.2844C56.5196 35.4292 57 34.2694 57 33.06V4.56C57 3.35061 56.5196 2.19076 55.6644 1.33559C54.8092 0.480427 53.6494 0 52.44 0ZM29.64 44.3232H27.36V37.62H29.64V44.3232ZM55.86 33.06C55.86 33.967 55.4997 34.8369 54.8583 35.4783C54.2169 36.1197 53.347 36.48 52.44 36.48H4.56C3.65296 36.48 2.78307 36.1197 2.14169 35.4783C1.50032 34.8369 1.14 33.967 1.14 33.06V4.56C1.14 3.65296 1.50032 2.78307 2.14169 2.14169C2.78307 1.50032 3.65296 1.14 4.56 1.14H52.44C53.347 1.14 54.2169 1.50032 54.8583 2.14169C55.4997 2.78307 55.86 3.65296 55.86 4.56V33.06Z" fill="#165DBA"/>
</svg>
