<svg width="60" height="61" viewBox="0 0 60 61" fill="none" xmlns="http://www.w3.org/2000/svg">
<path d="M29.9844 13.6152C29.8067 13.6152 29.6363 13.6858 29.5107 13.8114C29.385 13.9371 29.3145 14.1075 29.3145 14.2852V30.2561C29.3145 30.4338 29.385 30.6042 29.5107 30.7298C29.6363 30.8554 29.8067 30.926 29.9844 30.926H42.6191C42.7968 30.926 42.9672 30.8554 43.0928 30.7298C43.2184 30.6042 43.289 30.4338 43.289 30.2561C43.289 30.0784 43.2184 29.908 43.0928 29.7824C42.9672 29.6568 42.7968 29.5862 42.6191 29.5862H30.6543V14.2852C30.6543 14.1075 30.5837 13.9371 30.4581 13.8114C30.3324 13.6858 30.162 13.6152 29.9844 13.6152Z" fill="#165DBA"/>
<path d="M41.4122 2.53528C41.2617 2.47491 41.0937 2.47491 40.9432 2.53528L43.2076 1.28922C43.2948 1.25325 43.3734 1.19925 43.4383 1.13078C43.5032 1.06231 43.5529 0.980896 43.5842 0.891879C43.6155 0.802862 43.6276 0.708246 43.6197 0.614226C43.6119 0.520207 43.5843 0.428905 43.5387 0.346298C43.4931 0.263691 43.4306 0.191642 43.3552 0.134869C43.2799 0.0780954 43.1934 0.0378783 43.1014 0.0168507C43.0095 -0.00417684 42.9141 -0.00554039 42.8215 0.0128487C42.729 0.0312378 42.6414 0.0689655 42.5645 0.123561L38.9469 2.11993C38.7949 2.2025 38.6807 2.34065 38.6283 2.50547C38.5758 2.67029 38.5892 2.84901 38.6655 3.00422L40.5011 6.60841C40.5594 6.71768 40.6463 6.80907 40.7525 6.87278C40.8587 6.9365 40.9802 6.97016 41.104 6.97016C41.2005 6.99635 41.3023 6.99635 41.3988 6.97016C41.4782 6.93178 41.549 6.8778 41.6071 6.81143C41.6652 6.74507 41.7093 6.66769 41.7368 6.58391C41.7643 6.50012 41.7747 6.41166 41.7672 6.32379C41.7598 6.23592 41.7347 6.15044 41.6936 6.07247L40.1527 2.95063L40.7021 2.62907C40.6032 2.69248 40.5279 2.78663 40.4877 2.89704C40.4528 2.9778 40.4346 3.06474 40.4339 3.1527C40.4333 3.24067 40.4504 3.32786 40.4842 3.40909C40.5179 3.49033 40.5676 3.56395 40.6304 3.6256C40.6931 3.68724 40.7676 3.73564 40.8495 3.76794C46.9795 6.29172 52.0445 10.8635 55.1809 16.7039C58.3173 22.5442 59.3309 29.2916 58.0491 35.7958C56.7672 42.2999 53.2692 48.1581 48.1513 52.3717C43.0334 56.5853 36.6126 58.8934 29.9833 58.9025C28.8909 58.9009 27.7995 58.8383 26.7141 58.7149C26.6261 58.7044 26.5369 58.7113 26.4516 58.7352C26.3663 58.7591 26.2865 58.7996 26.2169 58.8543C26.1472 58.909 26.089 58.977 26.0456 59.0542C26.0021 59.1315 25.9743 59.2165 25.9638 59.3045C25.9532 59.3924 25.9601 59.4816 25.984 59.567C26.0079 59.6523 26.0484 59.732 26.1032 59.8017C26.1579 59.8714 26.2258 59.9296 26.3031 59.973C26.3803 60.0164 26.4653 60.0442 26.5533 60.0548C27.6918 60.1884 28.8371 60.2555 29.9833 60.2558C36.9304 60.2628 43.6644 57.8575 49.0349 53.4507C54.4053 49.0439 58.079 42.909 59.4284 36.0943C60.7777 29.2795 59.719 22.2076 56.433 16.0868C53.1471 9.96602 47.8378 5.17607 41.4122 2.53528Z" fill="#165DBA"/>
<path d="M19.9348 54.1592C19.8886 53.9816 19.7737 53.8295 19.6154 53.7365C19.4571 53.6436 19.2683 53.6173 19.0907 53.6635C18.913 53.7097 18.761 53.8246 18.668 53.9829C18.575 54.1412 18.5487 54.3299 18.5949 54.5076L19.2649 56.9193C19.1938 56.8433 19.1069 56.7838 19.0103 56.7451C12.8717 54.2179 7.80142 49.637 4.66611 43.7856C1.5308 37.9342 0.525104 31.1755 1.82093 24.6647C3.11676 18.1539 6.63365 12.2953 11.7705 8.09026C16.9073 3.88523 23.3451 1.59483 29.9836 1.61055C31.076 1.61217 32.1674 1.6748 33.2528 1.79813C33.4305 1.81945 33.6094 1.76932 33.7501 1.65876C33.8908 1.5482 33.9818 1.38627 34.0031 1.2086C34.0245 1.03092 33.9743 0.852056 33.8638 0.711345C33.7532 0.570634 33.5913 0.479606 33.4136 0.458285C32.2749 0.329135 31.1296 0.266502 29.9836 0.270706C23.0423 0.271204 16.3163 2.67982 10.9526 7.08573C5.5889 11.4916 1.91989 17.6219 0.571369 24.4309C-0.777151 31.2399 0.278349 38.3059 3.55783 44.4235C6.83732 50.5412 12.1376 55.3317 18.5547 57.9778C18.6211 57.9905 18.6893 57.9905 18.7557 57.9778L16.2234 58.7683C16.0553 58.8208 15.9147 58.9375 15.8319 59.0929C15.7492 59.2484 15.731 59.4302 15.7813 59.599C15.8223 59.7368 15.9075 59.8573 16.0237 59.942C16.1398 60.0268 16.2806 60.071 16.4244 60.0679C16.4907 60.0809 16.559 60.0809 16.6254 60.0679L20.6047 58.8621C20.7723 58.8122 20.9137 58.6988 20.9988 58.5461C21.0839 58.3934 21.106 58.2135 21.0602 58.0448L19.9348 54.1592ZM19.2649 57.884C19.3608 57.8173 19.4352 57.7242 19.4792 57.616C19.4837 57.567 19.4837 57.5177 19.4792 57.4686L19.5596 57.7768L19.2649 57.884Z" fill="#165DBA"/>
</svg>
