<svg width="61" height="48" viewBox="0 0 61 48" fill="none" xmlns="http://www.w3.org/2000/svg">
<path d="M36.7118 43.6046H3.56071C3.12784 43.606 2.70328 43.4858 2.33541 43.2576C1.96754 43.0295 1.67115 42.7026 1.48001 42.3142C1.26769 41.9033 1.17395 41.4415 1.20928 40.9803C1.24462 40.5192 1.40764 40.077 1.68008 39.7033L6.00152 33.7613C6.21294 33.4571 6.49382 33.2077 6.82087 33.0338C7.14793 32.8598 7.51174 32.7663 7.88215 32.761H35.1212C35.2804 32.761 35.4331 32.6978 35.5456 32.5852C35.6582 32.4726 35.7214 32.32 35.7214 32.1608C35.7214 32.0016 35.6582 31.8489 35.5456 31.7364C35.4331 31.6238 35.2804 31.5606 35.1212 31.5606H9.65274C9.33615 31.5606 9.02266 31.4982 8.73016 31.3771C8.43767 31.2559 8.17191 31.0784 7.94804 30.8545C7.72418 30.6306 7.5466 30.3649 7.42545 30.0724C7.30429 29.7799 7.24193 29.4664 7.24193 29.1498V5.87203C7.24193 5.25987 7.36251 4.6537 7.59677 4.08813C7.83104 3.52257 8.17441 3.00868 8.60727 2.57582C9.48148 1.70161 10.6672 1.21048 11.9035 1.21048H48.0155C49.2501 1.21313 50.4332 1.70543 51.3053 2.57935C52.1773 3.45327 52.6671 4.63744 52.6671 5.87203V23.1878C52.686 23.3349 52.7579 23.4701 52.8693 23.5681C52.9807 23.666 53.1239 23.72 53.2723 23.72C53.4206 23.72 53.5639 23.666 53.6752 23.5681C53.7866 23.4701 53.8585 23.3349 53.8775 23.1878V5.87203C53.8775 4.31643 53.2602 2.82438 52.1612 1.72347C51.0621 0.622548 49.5711 0.00272679 48.0155 7.66935e-05H11.9035C11.1299 -0.00387721 10.3631 0.145088 9.64717 0.43841C8.93128 0.731733 8.28042 1.16363 7.73197 1.70929C7.18353 2.25494 6.74832 2.9036 6.45135 3.61798C6.15438 4.33236 6.00151 5.09839 6.00152 5.87203V29.1698C5.99528 30.1051 6.35417 31.0059 7.00185 31.6806C6.1941 31.887 5.48539 32.3724 5.00119 33.0511L0.699754 39.0531C0.312836 39.5977 0.081423 40.2374 0.0303187 40.9035C-0.0207856 41.5696 0.110346 42.2371 0.409658 42.8344C0.690764 43.4326 1.13637 43.9384 1.69438 44.2927C2.25239 44.647 2.89973 44.8351 3.56071 44.835H36.7118C36.8589 44.8161 36.994 44.7442 37.092 44.6328C37.19 44.5214 37.244 44.3782 37.244 44.2298C37.244 44.0815 37.19 43.9382 37.092 43.8268C36.994 43.7155 36.8589 43.6436 36.7118 43.6246V43.6046Z" fill="#165DBA"/>
<path d="M48.7464 25.4189C46.5167 25.4189 44.337 26.0801 42.4831 27.3189C40.6291 28.5577 39.1841 30.3184 38.3308 32.3784C37.4775 34.4384 37.2543 36.7052 37.6893 38.8921C38.1243 41.079 39.198 43.0878 40.7747 44.6645C42.3513 46.2411 44.3601 47.3148 46.547 47.7498C48.7339 48.1848 51.0007 47.9616 53.0607 47.1083C55.1207 46.255 56.8814 44.81 58.1202 42.9561C59.359 41.1021 60.0202 38.9224 60.0202 36.6927C60.0202 33.7027 58.8324 30.8352 56.7182 28.721C54.6039 26.6067 51.7364 25.4189 48.7464 25.4189ZM48.7464 46.726C46.7679 46.726 44.8339 46.1394 43.1889 45.0402C41.5438 43.941 40.2617 42.3787 39.5045 40.5508C38.7474 38.723 38.5493 36.7116 38.9353 34.7712C39.3213 32.8307 40.274 31.0483 41.673 29.6493C43.072 28.2503 44.8544 27.2976 46.7949 26.9116C48.7353 26.5256 50.7467 26.7237 52.5745 27.4808C54.4024 28.238 55.9647 29.5201 57.0639 31.1652C58.1631 32.8102 58.7498 34.7442 58.7498 36.7227C58.7498 39.3758 57.6958 41.9202 55.8198 43.7961C53.9439 45.6721 51.3995 46.726 48.7464 46.726Z" fill="#165DBA"/>
<path d="M51.7477 37.5931H49.3469V32.1813C49.3469 32.0221 49.2836 31.8694 49.1711 31.7568C49.0585 31.6443 48.9059 31.5811 48.7467 31.5811C48.5875 31.5811 48.4348 31.6443 48.3223 31.7568C48.2097 31.8694 48.1465 32.0221 48.1465 32.1813V38.1833C48.1465 38.3424 48.2097 38.4951 48.3223 38.6077C48.4348 38.7202 48.5875 38.7835 48.7467 38.7835H51.7477C51.9069 38.7835 52.0595 38.7202 52.1721 38.6077C52.2846 38.4951 52.3479 38.3424 52.3479 38.1833C52.3479 38.0241 52.2846 37.8714 52.1721 37.7588C52.0595 37.6463 51.9069 37.5831 51.7477 37.5831V37.5931Z" fill="#165DBA"/>
</svg>
