<svg width="60" height="60" viewBox="0 0 60 60" fill="none" xmlns="http://www.w3.org/2000/svg">
<path d="M56.3896 42.7395C54.5316 41.233 52.182 40.4669 49.7931 40.5888C47.4041 40.7106 45.1447 41.7118 43.4496 43.3995C43.2035 43.6443 42.9698 43.9013 42.7496 44.1695C41.5935 45.5936 40.8644 47.316 40.6467 49.1372C40.4291 50.9585 40.7317 52.8042 41.5196 54.4605C42.3075 56.1169 43.5485 57.5163 45.0988 58.4965C46.6491 59.4768 48.4454 59.9979 50.2796 59.9995C50.6138 59.9984 50.9476 59.9783 51.2796 59.9395C53.4813 59.7161 55.5378 58.7374 57.0996 57.1695C57.3396 56.9195 57.5796 56.6695 57.7996 56.3895C59.4165 54.3868 60.172 51.824 59.9001 49.2644C59.6282 46.7048 58.3511 44.3579 56.3496 42.7395H56.3896ZM51.1896 58.7395C49.5151 58.9203 47.8246 58.5995 46.3327 57.8179C44.8407 57.0363 43.6147 55.829 42.81 54.3494C42.0054 52.8698 41.6585 51.1845 41.8133 49.5073C41.9681 47.8302 42.6177 46.2369 43.6796 44.9295C43.7396 44.8495 43.8196 44.7695 43.8896 44.6895L55.8896 56.6895C54.5736 57.8457 52.9316 58.5654 51.1896 58.7495V58.7395ZM56.8996 55.6295C56.8396 55.7095 56.7596 55.7795 56.6896 55.8595L44.7396 43.8595C46.0512 42.7372 47.6728 42.0397 49.3896 41.8595C49.6996 41.8595 49.9996 41.8595 50.3096 41.8595C51.8998 41.8766 53.4533 42.339 54.7941 43.1941C56.1349 44.0492 57.2093 45.2629 57.8954 46.6976C58.5815 48.1322 58.8518 49.7304 58.6758 51.3109C58.4998 52.8914 57.8845 54.391 56.8996 55.6395V55.6295Z" fill="#165DBA"/>
<path d="M40.8299 19.1697C43.3329 21.6755 44.8898 24.9716 45.2353 28.4964C45.5807 32.0213 44.6934 35.5569 42.7244 38.501C40.7555 41.445 37.8267 43.6153 34.437 44.6421C31.0474 45.669 27.4066 45.4889 24.1348 44.1324C20.8631 42.776 18.1629 40.3272 16.4941 37.2032C14.8254 34.0792 14.2914 30.4733 14.9831 26.9997C15.6748 23.5261 17.5494 20.3998 20.2876 18.1534C23.0258 15.907 26.4581 14.6794 29.9999 14.6797V13.4697C26.1752 13.4681 22.4683 14.7929 19.5109 17.2182C16.5535 19.6435 14.5287 23.0193 13.7814 26.7703C13.0342 30.5213 13.6109 34.4153 15.4131 37.7888C17.2153 41.1623 20.1316 43.8064 23.6649 45.2705C27.1983 46.7347 31.13 46.9283 34.7901 45.8183C38.4502 44.7083 41.6121 42.3635 43.737 39.1834C45.862 36.0033 46.8183 32.1847 46.4432 28.3785C46.0681 24.5722 44.3847 21.0138 41.6799 18.3097C38.5823 15.2115 34.381 13.4705 29.9999 13.4697V14.6797C32.0125 14.6733 34.0063 15.067 35.8655 15.8378C37.7247 16.6086 39.4122 17.7412 40.8299 19.1697Z" fill="#165DBA"/>
<path d="M58.19 24.7L55.06 24.25C54.9045 24.2266 54.7576 24.1638 54.6333 24.0675C54.509 23.9712 54.4115 23.8447 54.35 23.7L51.67 17.24C51.6093 17.0943 51.5884 16.9351 51.6095 16.7788C51.6306 16.6224 51.6929 16.4744 51.79 16.35L53.68 13.82C53.9821 13.4127 54.1289 12.9109 54.0941 12.405C54.0593 11.899 53.8451 11.4221 53.49 11.06L48.94 6.51C48.58 6.15122 48.1026 5.93445 47.5955 5.89954C47.0884 5.86463 46.5858 6.01394 46.18 6.32L43.65 8.22C43.5238 8.31363 43.3755 8.37297 43.2195 8.39224C43.0635 8.41152 42.9052 8.39008 42.76 8.33L36.3 5.65C36.1553 5.58851 36.0288 5.49097 35.9325 5.36667C35.8362 5.24238 35.7734 5.09548 35.75 4.94L35.3 1.81C35.228 1.30898 34.9784 0.850527 34.5965 0.518259C34.2147 0.185992 33.7262 0.00205501 33.22 0L26.78 0C26.2738 0.00205501 25.7853 0.185992 25.4035 0.518259C25.0216 0.850527 24.772 1.30898 24.7 1.81L24.25 4.94C24.2266 5.09548 24.1638 5.24238 24.0675 5.36667C23.9712 5.49097 23.8447 5.58851 23.7 5.65L17.24 8.33C17.0946 8.38911 16.9365 8.41004 16.7807 8.39078C16.6249 8.37153 16.4766 8.31274 16.35 8.22L13.82 6.32C13.4127 6.01792 12.9109 5.87109 12.405 5.90592C11.899 5.94075 11.4221 6.15495 11.06 6.51L6.51 11.06C6.15495 11.4221 5.94075 11.899 5.90592 12.405C5.87109 12.9109 6.01792 13.4127 6.32 13.82L8.22 16.35C8.31363 16.4762 8.37297 16.6245 8.39224 16.7805C8.41152 16.9365 8.39008 17.0948 8.33 17.24L5.65 23.7C5.58851 23.8447 5.49097 23.9712 5.36667 24.0675C5.24238 24.1638 5.09548 24.2266 4.94 24.25L1.81 24.7C1.30898 24.772 0.850527 25.0216 0.51826 25.4035C0.185992 25.7853 0.0020555 26.2738 4.89017e-07 26.78V33.21C-0.000345116 33.7179 0.182508 34.2088 0.514993 34.5928C0.847477 34.9767 1.30728 35.2278 1.81 35.3L4.94 35.75C5.09548 35.7734 5.24238 35.8362 5.36667 35.9325C5.49097 36.0288 5.58851 36.1553 5.65 36.3L8.33 42.76C8.39008 42.9052 8.41152 43.0635 8.39224 43.2195C8.37297 43.3755 8.31363 43.5238 8.22 43.65L6.32 46.18C6.01792 46.5873 5.87109 47.0891 5.90592 47.595C5.94075 48.101 6.15495 48.5779 6.51 48.94L11.06 53.49C11.4221 53.8451 11.899 54.0593 12.405 54.0941C12.9109 54.1289 13.4127 53.9821 13.82 53.68L16.35 51.78C16.4766 51.6873 16.6249 51.6285 16.7807 51.6092C16.9365 51.59 17.0946 51.6109 17.24 51.67L23.7 54.35C23.8447 54.4115 23.9712 54.509 24.0675 54.6333C24.1638 54.7576 24.2266 54.9045 24.25 55.06L24.7 58.19C24.772 58.691 25.0216 59.1495 25.4035 59.4817C25.7853 59.814 26.2738 59.9979 26.78 60H33.22C33.7262 59.9979 34.2147 59.814 34.5965 59.4817C34.9784 59.1495 35.228 58.691 35.3 58.19L35.75 55.06C35.7734 54.9045 35.8362 54.7576 35.9325 54.6333C36.0288 54.509 36.1553 54.4115 36.3 54.35L38.54 53.42C38.6131 53.3894 38.6795 53.3447 38.7352 53.2883C38.7909 53.232 38.8349 53.1651 38.8647 53.0917C38.8944 53.0182 38.9093 52.9396 38.9085 52.8604C38.9077 52.7811 38.8912 52.7028 38.86 52.63C38.8305 52.5572 38.7867 52.4911 38.7313 52.4355C38.6759 52.3799 38.6099 52.3359 38.5373 52.3061C38.4646 52.2763 38.3867 52.2612 38.3082 52.2619C38.2297 52.2626 38.1521 52.2789 38.08 52.31L35.84 53.23C35.5005 53.3712 35.2038 53.5986 34.9793 53.8898C34.7548 54.181 34.6102 54.5258 34.56 54.89L34.11 58C34.0788 58.2138 33.9717 58.4093 33.8083 58.5506C33.6449 58.692 33.4361 58.7699 33.22 58.77H26.78C26.5639 58.7699 26.3551 58.692 26.1917 58.5506C26.0283 58.4093 25.9212 58.2138 25.89 58L25.44 54.87C25.3898 54.5058 25.2452 54.161 25.0207 53.8698C24.7962 53.5786 24.4995 53.3512 24.16 53.21L17.7 50.56C17.3626 50.4172 16.9935 50.3661 16.63 50.4117C16.2666 50.4574 15.9216 50.5982 15.63 50.82L13.1 52.72C12.9241 52.8509 12.7068 52.9138 12.4882 52.8973C12.2695 52.8808 12.0642 52.7859 11.91 52.63L7.37 48.09C7.21415 47.9358 7.11923 47.7305 7.10269 47.5118C7.08616 47.2932 7.14912 47.0759 7.28 46.9L9.18 44.37C9.40179 44.0784 9.54264 43.7334 9.58829 43.37C9.63395 43.0065 9.58279 42.6374 9.44 42.3L6.77 35.84C6.62881 35.5005 6.40137 35.2038 6.11019 34.9793C5.81902 34.7548 5.47424 34.6102 5.11 34.56L2 34.11C1.78536 34.0766 1.58975 33.9675 1.44853 33.8024C1.30732 33.6374 1.2298 33.4272 1.23 33.21V26.78C1.23014 26.5639 1.308 26.3551 1.44938 26.1917C1.59075 26.0283 1.78619 25.9212 2 25.89L5.13 25.44C5.49424 25.3898 5.83902 25.2452 6.13019 25.0207C6.42137 24.7962 6.64881 24.4995 6.79 24.16L9.44 17.7C9.58279 17.3626 9.63395 16.9935 9.58829 16.63C9.54264 16.2666 9.40179 15.9216 9.18 15.63L7.28 13.09C7.14984 12.9157 7.08724 12.7001 7.10378 12.4831C7.12033 12.2662 7.2149 12.0626 7.37 11.91L11.91 7.37C12.0642 7.21415 12.2695 7.11923 12.4882 7.10269C12.7068 7.08616 12.9241 7.14912 13.1 7.28L15.63 9.18C15.9229 9.39903 16.2677 9.53815 16.6306 9.58373C16.9935 9.62932 17.362 9.57978 17.7 9.44L24.16 6.76C24.4999 6.62223 24.7973 6.39705 25.0221 6.10728C25.2469 5.81751 25.391 5.47346 25.44 5.11L25.89 2C25.9212 1.78619 26.0283 1.59075 26.1917 1.44938C26.3551 1.308 26.5639 1.23013 26.78 1.23H33.22C33.4361 1.23013 33.6449 1.308 33.8083 1.44938C33.9717 1.59075 34.0788 1.78619 34.11 2L34.56 5.13C34.609 5.49346 34.7531 5.83751 34.9779 6.12728C35.2027 6.41705 35.5001 6.64223 35.84 6.78L42.3 9.44C42.638 9.57978 43.0065 9.62932 43.3694 9.58373C43.7323 9.53815 44.0771 9.39903 44.37 9.18L46.9 7.28C47.0759 7.14912 47.2932 7.08616 47.5118 7.10269C47.7305 7.11923 47.9358 7.21415 48.09 7.37L52.63 11.91C52.7851 12.0626 52.8797 12.2662 52.8962 12.4831C52.9128 12.7001 52.8502 12.9157 52.72 13.09L50.82 15.63C50.6028 15.9238 50.4647 16.2685 50.4192 16.631C50.3737 16.9935 50.4222 17.3616 50.56 17.7L53.23 24.16C53.3712 24.4995 53.5986 24.7962 53.8898 25.0207C54.181 25.2452 54.5258 25.3898 54.89 25.44L58.02 25.89C58.2338 25.9212 58.4293 26.0283 58.5706 26.1917C58.712 26.3551 58.7899 26.5639 58.79 26.78V33.21C58.7902 33.4272 58.7127 33.6374 58.5715 33.8024C58.4302 33.9675 58.2346 34.0766 58.02 34.11L54.89 34.56C54.5258 34.6102 54.181 34.7548 53.8898 34.9793C53.5986 35.2038 53.3712 35.5005 53.23 35.84L52.3 38.1C52.2691 38.1729 52.2529 38.2511 52.2523 38.3303C52.2517 38.4094 52.2667 38.4879 52.2964 38.5613C52.3261 38.6346 52.37 38.7014 52.4255 38.7578C52.481 38.8142 52.5471 38.8591 52.62 38.89C52.6929 38.9209 52.7711 38.9371 52.8503 38.9377C52.9294 38.9383 53.0079 38.9233 53.0813 38.8936C53.1546 38.8639 53.2214 38.82 53.2778 38.7645C53.3342 38.709 53.3791 38.6429 53.41 38.57L54.35 36.3C54.4115 36.1553 54.509 36.0288 54.6333 35.9325C54.7576 35.8362 54.9045 35.7734 55.06 35.75L58.19 35.3C58.6927 35.2278 59.1525 34.9767 59.485 34.5928C59.8175 34.2088 60.0003 33.7179 60 33.21V26.78C59.9979 26.2738 59.814 25.7853 59.4817 25.4035C59.1495 25.0216 58.691 24.772 58.19 24.7Z" fill="#165DBA"/>
</svg>
