<svg width="60" height="53" viewBox="0 0 60 53" fill="none" xmlns="http://www.w3.org/2000/svg">
<path d="M51.1694 0.99957C51.0556 0.888999 50.9031 0.827148 50.7444 0.827148C50.5857 0.827148 50.4333 0.888999 50.3194 0.99957C50.2623 1.05461 50.2168 1.12062 50.1857 1.19365C50.1547 1.26667 50.1387 1.34521 50.1387 1.42457C50.1387 1.50393 50.1547 1.58247 50.1857 1.65549C50.2168 1.72852 50.2623 1.79453 50.3194 1.84957C55.7396 7.27105 58.7845 14.6234 58.7845 22.2896C58.7845 29.9558 55.7396 37.3081 50.3194 42.7296C50.2089 42.8434 50.147 42.9959 50.147 43.1546C50.147 43.3133 50.2089 43.4657 50.3194 43.5796C50.3755 43.6367 50.4424 43.6821 50.5162 43.713C50.5901 43.7439 50.6694 43.7598 50.7494 43.7596C50.828 43.7596 50.9057 43.7436 50.9779 43.7127C51.0501 43.6817 51.1153 43.6365 51.1694 43.5796C53.9675 40.785 56.1872 37.4662 57.7017 33.8131C59.2162 30.16 59.9958 26.2442 59.9958 22.2896C59.9958 18.335 59.2162 14.4191 57.7017 10.766C56.1872 7.11292 53.9675 3.79417 51.1694 0.99957Z" fill="#165DBA"/>
<path d="M41.7808 9.53946C41.6696 9.65498 41.6074 9.8091 41.6074 9.96946C41.6074 10.1298 41.6696 10.2839 41.7808 10.3995C43.3551 11.9505 44.6039 13.8002 45.4539 15.8402C46.3039 17.8802 46.738 20.0695 46.7308 22.2795C46.7186 26.7298 44.9505 30.9955 41.8108 34.1495C41.7388 34.2353 41.6919 34.3394 41.6751 34.4502C41.6584 34.5609 41.6725 34.6742 41.7159 34.7775C41.7592 34.8808 41.8302 34.9702 41.9211 35.0358C42.0119 35.1014 42.1191 35.1407 42.2308 35.1495C42.3108 35.1497 42.3901 35.1338 42.464 35.1029C42.5378 35.072 42.6047 35.0266 42.6608 34.9695C46.0309 31.5927 47.9289 27.0202 47.9408 22.2495C47.947 19.8805 47.4815 17.5339 46.5716 15.3466C45.6616 13.1593 44.3254 11.1751 42.6408 9.50946C42.5214 9.40218 42.3651 9.34537 42.2047 9.35096C42.0443 9.35656 41.8924 9.42413 41.7808 9.53946Z" fill="#165DBA"/>
<path d="M9.68023 0.99957C9.56638 0.888999 9.41393 0.827148 9.25523 0.827148C9.09653 0.827148 8.94407 0.888999 8.83023 0.99957C6.03217 3.79417 3.81243 7.11292 2.29793 10.766C0.783441 14.4191 0.00390625 18.335 0.00390625 22.2896C0.00390625 26.2442 0.783441 30.16 2.29793 33.8131C3.81243 37.4662 6.03217 40.785 8.83023 43.5796C8.8844 43.6365 8.94956 43.6817 9.02175 43.7127C9.09395 43.7436 9.17168 43.7596 9.25023 43.7596C9.33029 43.7598 9.40957 43.7439 9.48342 43.713C9.55727 43.6821 9.62419 43.6367 9.68023 43.5796C9.7908 43.4657 9.85265 43.3133 9.85265 43.1546C9.85265 42.9959 9.7908 42.8434 9.68023 42.7296C4.26005 37.3081 1.21514 29.9558 1.21514 22.2896C1.21514 14.6234 4.26005 7.27105 9.68023 1.84957C9.73739 1.79453 9.78286 1.72852 9.81392 1.65549C9.84498 1.58247 9.86099 1.50393 9.86099 1.42457C9.86099 1.34521 9.84498 1.26667 9.81392 1.19365C9.78286 1.12062 9.73739 1.05461 9.68023 0.99957Z" fill="#165DBA"/>
<path d="M18.2201 9.53956C18.1046 9.42834 17.9505 9.36621 17.7901 9.36621C17.6297 9.36621 17.4756 9.42834 17.3601 9.53956C15.688 11.2111 14.3616 13.1957 13.4567 15.3799C12.5517 17.5641 12.0859 19.9053 12.0859 22.2696C12.0859 24.6338 12.5517 26.975 13.4567 29.1592C14.3616 31.3435 15.688 33.328 17.3601 34.9996C17.4151 35.0567 17.4811 35.1022 17.5542 35.1333C17.6272 35.1643 17.7057 35.1803 17.7851 35.1803C17.8644 35.1803 17.943 35.1643 18.016 35.1333C18.089 35.1022 18.155 35.0567 18.2101 34.9996C18.2673 34.9445 18.3127 34.8785 18.3438 34.8055C18.3748 34.7325 18.3909 34.6539 18.3909 34.5746C18.3909 34.4952 18.3748 34.4167 18.3438 34.3436C18.3127 34.2706 18.2673 34.2046 18.2101 34.1496C16.6454 32.5931 15.4038 30.7427 14.5565 28.7048C13.7093 26.6668 13.2731 24.4816 13.2731 22.2746C13.2731 20.0675 13.7093 17.8823 14.5565 15.8444C15.4038 13.8064 16.6454 11.9561 18.2101 10.3996C18.3227 10.2853 18.3866 10.1319 18.3885 9.97157C18.3903 9.81121 18.33 9.65637 18.2201 9.53956Z" fill="#165DBA"/>
<path d="M30.0012 17.75C28.8093 17.6732 27.6356 18.0724 26.7376 18.8599C25.8396 19.6474 25.2906 20.759 25.2112 21.9507C25.1317 23.1425 25.5283 24.3171 26.3138 25.2168C27.0993 26.1165 28.2096 26.668 29.4012 26.75V51.67C29.4012 51.8292 29.4644 51.9818 29.5769 52.0943C29.6895 52.2068 29.8421 52.27 30.0012 52.27C30.1603 52.27 30.3129 52.2068 30.4255 52.0943C30.538 51.9818 30.6012 51.8292 30.6012 51.67V26.73C31.7928 26.648 32.9031 26.0965 33.6886 25.1968C34.4742 24.2971 34.8707 23.1225 34.7912 21.9307C34.7118 20.739 34.1628 19.6274 33.2648 18.8399C32.3668 18.0524 31.1931 17.6532 30.0012 17.73V17.75ZM30.0012 25.59C29.3446 25.59 28.7027 25.3953 28.1567 25.0305C27.6107 24.6657 27.1852 24.1472 26.9339 23.5406C26.6826 22.9339 26.6169 22.2664 26.745 21.6223C26.8731 20.9783 27.1893 20.3868 27.6536 19.9225C28.1179 19.4581 28.7095 19.1419 29.3535 19.0138C29.9975 18.8857 30.6651 18.9515 31.2717 19.2028C31.8784 19.454 32.3969 19.8796 32.7617 20.4256C33.1265 20.9715 33.3212 21.6134 33.3212 22.27C33.3212 23.1506 32.9714 23.995 32.3488 24.6176C31.7262 25.2403 30.8817 25.59 30.0012 25.59Z" fill="#165DBA"/>
</svg>
