<svg width="70" height="41" viewBox="0 0 70 41" fill="none" xmlns="http://www.w3.org/2000/svg">
<path d="M66.558 9.57935H64.6244V7.64575C64.629 6.74282 64.4554 5.84786 64.1134 5.01219C63.7714 4.17652 63.2678 3.41658 62.6315 2.77595C61.9952 2.13531 61.2386 1.62658 60.4053 1.27892C59.572 0.931263 58.6782 0.751521 57.7753 0.75H6.84925C5.9463 0.751521 5.05254 0.931263 4.21921 1.27892C3.38588 1.62658 2.62937 2.13531 1.99307 2.77595C1.35676 3.41658 0.853165 4.17652 0.511166 5.01219C0.169167 5.84786 -0.00451126 6.74282 8.90511e-05 7.64575V28.7057C0.00316889 30.5213 0.725763 32.2616 2.00956 33.5454C3.29336 34.8292 5.03368 35.5518 6.84925 35.5549H44.6011C44.7865 35.5549 44.9643 35.4813 45.0953 35.3502C45.2264 35.2191 45.3 35.0414 45.3 34.856C45.3 34.6706 45.2264 34.4929 45.0953 34.3618C44.9643 34.2307 44.7865 34.1571 44.6011 34.1571H6.84925C5.40547 34.154 4.02188 33.5783 3.00207 32.5563C1.98226 31.5343 1.40952 30.1495 1.40952 28.7057V7.64575C1.40952 6.20304 1.98264 4.81943 3.00278 3.79928C4.02293 2.77914 5.40654 2.20603 6.84925 2.20603H57.7753C59.217 2.20911 60.5989 2.78321 61.6183 3.80268C62.6378 4.82216 63.2119 6.20399 63.215 7.64575V15.5549C63.2371 15.7262 63.3208 15.8836 63.4505 15.9977C63.5802 16.1117 63.747 16.1746 63.9197 16.1746C64.0924 16.1746 64.2593 16.1117 64.389 15.9977C64.5187 15.8836 64.6024 15.7262 64.6244 15.5549V10.9888H66.558C67.0678 10.9888 67.5566 11.1913 67.9171 11.5517C68.2775 11.9122 68.48 12.401 68.48 12.9107V20.8199C68.5021 20.9912 68.5858 21.1486 68.7155 21.2627C68.8452 21.3767 69.012 21.4396 69.1847 21.4396C69.3574 21.4396 69.5242 21.3767 69.654 21.2627C69.7837 21.1486 69.8674 20.9912 69.8894 20.8199V12.9107C69.8894 12.0272 69.5385 11.1799 68.9137 10.5551C68.2889 9.93034 67.4416 9.57935 66.558 9.57935Z" fill="#165DBA"/>
<path d="M65.6844 20.7032C63.5294 18.9511 60.8024 18.0578 58.0284 18.1955C55.2543 18.3331 52.6292 19.4918 50.6582 21.4487C49.0742 23.0276 47.9944 25.041 47.5556 27.234C47.1168 29.4269 47.3386 31.7008 48.193 33.7676C49.0474 35.8344 50.496 37.6012 52.3552 38.8441C54.2145 40.0871 56.4008 40.7503 58.6372 40.7498C59.0265 40.7484 59.4154 40.7251 59.802 40.6799C62.3666 40.4197 64.7621 39.2796 66.5813 37.4534C66.8609 37.1622 67.1404 36.871 67.3967 36.5448C69.2801 34.2119 70.1601 31.2267 69.8434 28.2453C69.5267 25.2638 68.0391 22.5301 65.7077 20.645L65.6844 20.7032ZM59.6273 39.3404C57.6553 39.5459 55.6669 39.154 53.9204 38.2153C52.1739 37.2767 50.7499 35.8348 49.8332 34.0767C48.9165 32.3186 48.5494 30.3255 48.7796 28.3562C49.0098 26.3868 49.8266 24.5321 51.1241 23.0329L65.102 37.0107C63.5618 38.3364 61.6498 39.154 59.6273 39.352V39.3404ZM66.2785 35.6945C66.2086 35.7877 66.1154 35.8692 66.0338 35.9624L52.1142 21.9845C53.642 20.6772 55.5308 19.8648 57.5306 19.6549C57.8917 19.6549 58.2412 19.6549 58.6023 19.6549C60.4525 19.6765 62.2598 20.2155 63.8195 21.211C65.3793 22.2064 66.6293 23.6186 67.4281 25.2877C68.2268 26.9567 68.5425 28.8161 68.3393 30.6552C68.1362 32.4944 67.4223 34.24 66.2785 35.6945Z" fill="#165DBA"/>
</svg>
