<svg width="60" height="58" viewBox="0 0 60 58" fill="none" xmlns="http://www.w3.org/2000/svg">
<path d="M30.0001 11.0003C29.8388 10.7153 29.6048 10.4783 29.322 10.3133C29.0391 10.1484 28.7175 10.0615 28.3901 10.0615C28.0627 10.0615 27.7411 10.1484 27.4583 10.3133C27.1754 10.4783 26.9414 10.7153 26.7801 11.0003C25.6501 13.0003 20.0001 23.1803 19.7801 24.4303C19.4166 25.8245 19.4093 27.2878 19.7587 28.6856C20.1082 30.0834 20.8033 31.3711 21.7801 32.4303C22.6088 33.309 23.6107 34.0063 24.7227 34.4779C25.8346 34.9495 27.0324 35.1853 28.2401 35.1703H28.3501C29.5899 35.2007 30.8223 34.9707 31.9677 34.4953C33.1132 34.02 34.1462 33.3096 35.0001 32.4103C35.9655 31.3604 36.6539 30.0864 37.0031 28.7035C37.3523 27.3207 37.3513 25.8726 37.0001 24.4903C36.7701 23.2303 31.1201 13.0703 30.0001 11.0503V11.0003ZM34.0001 31.5403C33.2754 32.3017 32.399 32.9026 31.4274 33.3039C30.4559 33.7053 29.4109 33.8982 28.3601 33.8703H28.2701C27.2275 33.887 26.193 33.6847 25.2336 33.2765C24.2741 32.8682 23.411 32.2631 22.7001 31.5003C21.8656 30.5943 21.2725 29.493 20.9754 28.2977C20.6783 27.1023 20.6868 25.8514 21.0001 24.6603C21.1601 23.8803 24.6501 17.3603 27.8501 11.6603C27.9077 11.5817 27.983 11.5179 28.0698 11.4738C28.1567 11.4298 28.2527 11.4069 28.3501 11.4069C28.4475 11.4069 28.5435 11.4298 28.6304 11.4738C28.7172 11.5179 28.7925 11.5817 28.8501 11.6603C32.0501 17.4003 35.5501 23.9203 35.7301 24.7903C36.0362 25.9725 36.0429 27.2124 35.7496 28.3979C35.4563 29.5834 34.8722 30.6771 34.0501 31.5803L34.0001 31.5403Z" fill="#165DBA"/>
<path d="M31.5699 27.4094C31.7864 27.411 32.001 27.3684 32.2005 27.2842C32.3999 27.1999 32.5801 27.0758 32.7299 26.9194C32.9016 26.7303 33.0242 26.5019 33.087 26.2543C33.1497 26.0067 33.1507 25.7475 33.0899 25.4994C33.0399 25.2594 31.7499 22.7694 31.7499 22.7694C31.7295 22.7341 31.7005 22.7045 31.6655 22.6835C31.6305 22.6625 31.5907 22.6508 31.5499 22.6494C31.5074 22.649 31.4656 22.66 31.4287 22.681C31.3918 22.7021 31.3611 22.7326 31.3399 22.7694C31.3399 22.7694 30.0499 25.2594 30.0099 25.4994C29.9454 25.7473 29.9446 26.0074 30.0075 26.2557C30.0705 26.5039 30.1951 26.7322 30.3699 26.9194C30.5231 27.0823 30.7096 27.2104 30.9166 27.295C31.1236 27.3795 31.3464 27.4185 31.5699 27.4094ZM31.5699 25.1694C31.7199 25.4794 31.8299 25.7194 31.8799 25.8394C31.8876 25.8806 31.8853 25.923 31.8731 25.963C31.8609 26.003 31.8392 26.0396 31.8099 26.0694C31.733 26.12 31.6418 26.1445 31.5499 26.1394C31.4664 26.1395 31.3853 26.1113 31.3199 26.0594C31.2906 26.0296 31.2689 25.993 31.2567 25.953C31.2445 25.913 31.2422 25.8706 31.2499 25.8294L31.5699 25.1694Z" fill="#165DBA"/>
<path d="M37.14 43.4398H24.49C24.1919 43.4398 23.8967 43.4986 23.6213 43.6126C23.3459 43.7267 23.0957 43.8939 22.8849 44.1047C22.6741 44.3155 22.5069 44.5657 22.3928 44.8412C22.2787 45.1166 22.22 45.4117 22.22 45.7098V52.9998C22.22 53.8406 21.886 54.6469 21.2915 55.2414C20.697 55.8359 19.8907 56.1698 19.05 56.1698H6.19C4.88513 56.1698 3.63371 55.6515 2.71103 54.7288C1.78836 53.8061 1.27 52.5547 1.27 51.2498V6.77984C1.27 5.47498 1.78836 4.22356 2.71103 3.30088C3.63371 2.3782 4.88513 1.85984 6.19 1.85984H50.64C51.9449 1.85984 53.1963 2.3782 54.119 3.30088C55.0416 4.22356 55.56 5.47498 55.56 6.77984V32.9998C55.56 33.1669 55.6264 33.3272 55.7445 33.4453C55.8627 33.5635 56.0229 33.6298 56.19 33.6298C56.358 33.6299 56.5193 33.5638 56.639 33.4459C56.7588 33.3281 56.8274 33.1678 56.83 32.9998V6.77984C56.83 5.96696 56.6699 5.16204 56.3588 4.41103C56.0477 3.66003 55.5918 2.97765 55.017 2.40285C54.4422 1.82806 53.7598 1.37211 53.0088 1.06103C52.2578 0.749953 51.4529 0.589844 50.64 0.589844H6.19C4.54831 0.589844 2.97386 1.242 1.81301 2.40285C0.652159 3.5637 0 5.13815 0 6.77984L0 51.2198C0 52.8615 0.652159 54.436 1.81301 55.5968C2.97386 56.7577 4.54831 57.4098 6.19 57.4098H19.05C20.2224 57.4099 21.3472 56.9462 22.179 56.12C23.0108 55.2938 23.4821 54.1722 23.49 52.9998V45.7098C23.49 45.4446 23.5954 45.1903 23.7829 45.0027C23.9704 44.8152 24.2248 44.7098 24.49 44.7098H37.14C37.308 44.7099 37.4693 44.6438 37.5891 44.5259C37.7088 44.4081 37.7774 44.2478 37.78 44.0798C37.78 43.9101 37.7126 43.7473 37.5925 43.6273C37.4725 43.5073 37.3097 43.4398 37.14 43.4398Z" fill="#165DBA"/>
<path d="M59.9403 42.9094C59.74 40.9964 59.0034 39.1789 57.8153 37.6663C56.6273 36.1536 55.0361 35.0073 53.2251 34.3594C51.414 33.7115 49.4568 33.5883 47.5789 34.0041C45.7009 34.4198 43.9786 35.3576 42.6103 36.7094C41.1788 38.1367 40.2032 39.9569 39.8072 41.9393C39.4112 43.9217 39.6126 45.977 40.3858 47.8448C41.1591 49.7126 42.4694 51.3088 44.1507 52.4312C45.8321 53.5535 47.8087 54.1515 49.8303 54.1494C50.1903 54.1494 50.5503 54.1494 50.9103 54.0994C53.2131 53.8504 55.3634 52.8281 57.0103 51.1994C58.086 50.1235 58.9074 48.8207 59.4144 47.3863C59.9214 45.9519 60.1011 44.4222 59.9403 42.9094ZM48.8303 35.0894C49.162 35.0481 49.496 35.0281 49.8303 35.0294C51.5467 35.0327 53.2259 35.5295 54.6679 36.4606C56.1098 37.3917 57.2536 38.7178 57.9629 40.2808C58.6722 41.8438 58.9171 43.5778 58.6684 45.2761C58.4197 46.9744 57.6879 48.5654 56.5603 49.8594L43.9403 37.2094C45.3127 36.0153 47.0207 35.2748 48.8303 35.0894ZM50.7203 52.8894C48.9277 53.0911 47.1161 52.7459 45.5234 51.8991C43.9306 51.0522 42.6314 49.7434 41.7962 48.1445C40.9611 46.5456 40.6291 44.7314 40.844 42.9404C41.0589 41.1494 41.8106 39.4653 43.0003 38.1094L55.6203 50.7594C54.245 51.9567 52.5339 52.7005 50.7203 52.8894Z" fill="#165DBA"/>
</svg>
