<svg width="55" height="60" viewBox="0 0 55 60" fill="none" xmlns="http://www.w3.org/2000/svg">
<path d="M37.1699 58.65H6.28992C5.05482 58.65 3.87001 58.1607 2.99478 57.2893C2.11956 56.4178 1.62521 55.2351 1.61992 54V5.86C1.62257 4.62317 2.11576 3.43791 2.99126 2.56427C3.86677 1.69064 5.05309 1.2 6.28992 1.2H30.6499C31.1064 1.21118 31.5598 1.27835 31.9999 1.4V12.78C31.9999 13.6976 32.3645 14.5777 33.0133 15.2266C33.6622 15.8755 34.5423 16.24 35.4599 16.24H46.8199C46.9451 16.7062 47.0057 17.1873 46.9999 17.67V39.62C46.9999 39.7791 47.0631 39.9317 47.1757 40.0443C47.2882 40.1568 47.4408 40.22 47.5999 40.22C47.7591 40.22 47.9117 40.1568 48.0242 40.0443C48.1367 39.9317 48.1999 39.7791 48.1999 39.62V17.67C48.2024 16.8274 48.0385 15.9926 47.7176 15.2135C47.3967 14.4344 46.9251 13.7264 46.3299 13.13L35.2199 1.9C34.008 0.68696 32.3646 0.00373596 30.6499 0L6.28992 0C4.73483 -2.25657e-06 3.24329 0.617069 2.14274 1.71575C1.04218 2.81442 0.422571 4.30491 0.419922 5.86V54C0.422571 55.5551 1.04218 57.0456 2.14274 58.1443C3.24329 59.2429 4.73483 59.86 6.28992 59.86H37.1699C37.3291 59.86 37.4817 59.7968 37.5942 59.6843C37.7067 59.5717 37.7699 59.4191 37.7699 59.26C37.7699 59.1009 37.7067 58.9483 37.5942 58.8357C37.4817 58.7232 37.3291 58.66 37.1699 58.66V58.65ZM45.5199 14C45.8217 14.301 46.0869 14.6367 46.3099 15H35.4599C34.8605 15 34.2857 14.7619 33.8619 14.3381C33.438 13.9142 33.1999 13.3394 33.1999 12.74V1.9C33.627 2.1236 34.018 2.41014 34.3599 2.75L45.5199 14Z" fill="#165DBA"/>
<path d="M45.3499 41.8896C43.5601 41.8897 41.8105 42.4198 40.3217 43.4131C38.8329 44.4065 37.6716 45.8185 36.9844 47.4711C36.2973 49.1237 36.115 50.9428 36.4605 52.6989C36.8061 54.4549 37.664 56.0694 38.9261 57.3384C40.1881 58.6074 41.7978 59.4742 43.5519 59.8294C45.3061 60.1846 47.1262 60.0123 48.7825 59.3343C50.4389 58.6562 51.8573 57.5027 52.8588 56.0194C53.8603 54.5361 54.4 52.7894 54.4099 50.9996C54.4165 49.8057 54.187 48.6222 53.7347 47.5172C53.2823 46.4122 52.616 45.4075 51.774 44.5609C50.9321 43.7143 49.9311 43.0425 48.8286 42.5841C47.7261 42.1256 46.5439 41.8896 45.3499 41.8896ZM37.4999 50.9996C37.5046 49.1699 38.1523 47.4001 39.3299 45.9996L50.3799 56.9996C49.2371 57.9588 47.8443 58.5719 46.3651 58.767C44.8859 58.9621 43.3818 58.7311 42.0293 58.101C40.6769 57.471 39.5323 56.4682 38.73 55.2103C37.9276 53.9524 37.5009 52.4916 37.4999 50.9996ZM51.2399 56.1696L40.1799 45.0597C41.6779 43.7589 43.6133 43.0745 45.5959 43.1442C47.5786 43.214 49.4611 44.0329 50.8639 45.4357C52.2667 46.8385 53.0855 48.721 53.1553 50.7036C53.2251 52.6863 52.5406 54.6217 51.2399 56.1196V56.1696Z" fill="#165DBA"/>
<path d="M20.8204 20.2301L17.0004 16.4701C16.7265 16.2042 16.4024 15.9956 16.047 15.8565C15.6916 15.7174 15.312 15.6506 14.9304 15.6601C14.0373 15.6804 13.1677 15.9506 12.4204 16.4401C9.06039 18.6601 10.2504 23.5901 10.2904 23.7501C11.2204 28.0001 18.0004 34.8601 18.7604 35.6301C19.5204 36.4001 26.7604 43.3101 30.8704 44.0501C31.3977 44.1498 31.9337 44.1967 32.4704 44.1901C32.8784 44.1914 33.286 44.1647 33.6904 44.1101C34.567 44.0399 35.4145 43.7633 36.1636 43.3027C36.9128 42.8421 37.5422 42.2106 38.0004 41.4601C38.5804 40.4601 39.0904 38.2401 37.7304 36.9001L33.9204 33.1401C33.3617 32.6603 32.6563 32.3852 31.9204 32.3601C30.8964 32.4774 29.9505 32.9646 29.2604 33.7301C28.9188 34.0777 28.4574 34.2816 27.9704 34.3001C27.3403 34.2644 26.7456 33.9973 26.3004 33.5501C24.8704 32.3001 22.1504 29.6001 20.8704 28.1901C19.3504 26.5201 20.3304 25.1901 20.5204 25.0301C22.4004 22.8701 21.5604 21.0001 20.8204 20.2301ZM19.5704 24.2301C18.9986 24.9152 18.7155 25.7958 18.7808 26.6858C18.8461 27.5759 19.2547 28.4057 19.9204 29.0001C21.1704 30.3801 23.9204 33.1201 25.4504 34.4601C26.123 35.0791 26.9966 35.4343 27.9104 35.4601C28.6883 35.4648 29.4377 35.1672 30.0004 34.6301C30.492 34.0606 31.168 33.6819 31.9104 33.5601C32.3364 33.5826 32.7451 33.7363 33.0804 34.0001L36.8904 37.7601C37.7704 38.6301 37.3104 40.2301 36.9504 40.8701C36.5866 41.4633 36.0846 41.9596 35.4873 42.3166C34.89 42.6736 34.2151 42.8806 33.5204 42.9201C33.1726 42.9693 32.8216 42.9927 32.4704 42.9901C32.0077 42.993 31.5457 42.9528 31.0904 42.8701C27.8004 42.2701 21.6904 36.8701 19.6104 34.7701C17.5304 32.6701 12.2204 26.8901 11.4704 23.4701C11.3704 23.0301 10.5604 19.1201 13.0904 17.4701C13.6429 17.1121 14.2825 16.9116 14.9404 16.8901C15.1644 16.8792 15.3882 16.9145 15.5981 16.9936C15.8079 17.0727 15.9993 17.194 16.1604 17.3501L18.6204 19.7701L20.0004 21.0801C20.0004 21.1301 21.2404 22.3701 19.5704 24.2201V24.2301Z" fill="#165DBA"/>
</svg>
