<svg width="49" height="60" viewBox="0 0 49 60" fill="none" xmlns="http://www.w3.org/2000/svg">
<g clip-path="url(#clip0_358_387)">
<path d="M3.61977 25.32C3.94977 25.32 4.21977 25.05 4.21977 24.72V5.88C4.21977 3.3 6.31977 1.21 8.88977 1.21H27.5198C27.8998 1.21 28.2698 1.27 28.6298 1.36V13.41C28.6298 14.99 29.9098 16.27 31.4898 16.27H43.5198C43.6198 16.66 43.6898 17.05 43.6898 17.46V24.7C43.6898 25.03 43.9598 25.3 44.2898 25.3C44.6198 25.3 44.8898 25.03 44.8898 24.7V17.46C44.8898 15.9 44.2798 14.43 43.1798 13.32L31.6898 1.74C30.5998 0.64 29.0798 0 27.5198 0H8.88977C5.64977 0 3.00977 2.64 3.00977 5.88V24.71C3.00977 25.04 3.27977 25.31 3.60977 25.31L3.61977 25.32ZM29.8398 1.85C30.1998 2.06 30.5398 2.29 30.8398 2.59L42.3498 14.18C42.6198 14.45 42.8398 14.75 43.0298 15.07H31.4998C30.5898 15.07 29.8398 14.33 29.8398 13.41V1.85Z" fill="#165DBA"/>
<path d="M47.9898 49.2698C47.4298 43.9498 42.6198 40.0798 37.3198 40.6398C35.0498 40.8798 33.0498 41.8898 31.5398 43.3898C31.5298 43.3898 31.5198 43.3998 31.5098 43.4098C31.5098 43.4098 31.5098 43.4298 31.4898 43.4298C29.4898 45.4298 28.3698 48.2798 28.6998 51.3098C28.9698 53.8898 30.2298 56.2098 32.2498 57.8398C33.9898 59.2498 36.1198 59.9998 38.3298 59.9998C38.6798 59.9998 39.0198 59.9798 39.3698 59.9398C41.5998 59.6998 43.6298 58.7298 45.1898 57.1698C45.4298 56.9198 45.6698 56.6598 45.8898 56.3898C47.5198 54.3698 48.2698 51.8398 47.9898 49.2698ZM39.2298 58.7498C36.9698 58.9898 34.7598 58.3298 32.9898 56.9098C31.2198 55.4798 30.1198 53.4498 29.8798 51.1898C29.6198 48.7498 30.4398 46.4398 31.9398 44.7098L43.8898 56.7198C42.5898 57.8498 40.9798 58.5598 39.2298 58.7398V58.7498ZM44.9498 55.6398C44.8798 55.7198 44.8098 55.7898 44.7398 55.8698L32.7898 43.8598C34.0598 42.7698 35.6498 42.0298 37.4398 41.8398C37.7398 41.8098 38.0398 41.7898 38.3398 41.7898C42.6298 41.7898 46.3298 45.0398 46.7898 49.3998C47.0298 51.6598 46.3698 53.8698 44.9498 55.6398Z" fill="#165DBA"/>
<path d="M29.23 58.0699C28.32 58.0699 27.84 58.2499 27.41 58.4099C27.03 58.5499 26.71 58.6699 26.02 58.6699C25.33 58.6699 25 58.5499 24.63 58.4099C24.21 58.2499 23.73 58.0699 22.81 58.0699C21.89 58.0699 21.42 58.2499 21 58.4099C20.62 58.5499 20.3 58.6699 19.61 58.6699C18.92 58.6699 18.6 58.5499 18.22 58.4099C17.8 58.2499 17.32 58.0699 16.41 58.0699C15.5 58.0699 15.02 58.2499 14.6 58.4099C14.23 58.5499 13.9 58.6699 13.21 58.6699C12.52 58.6699 12.2 58.5499 11.82 58.4099C11.4 58.2499 10.92 58.0699 10.01 58.0699C9.1 58.0699 8.62 58.2499 8.2 58.4099C7.83 58.5499 7.5 58.6699 6.82 58.6699C6.14 58.6699 5.81 58.5499 5.43 58.4099C5.11 58.2899 4.76 58.1599 4.22 58.0999V32.8499H43.7V39.6799C43.7 40.0099 43.97 40.2799 44.3 40.2799C44.63 40.2799 44.9 40.0099 44.9 39.6799V32.8499H47.31C47.64 32.8499 47.91 32.5799 47.91 32.2499V27.7299C47.91 27.3999 47.64 27.1299 47.31 27.1299H0.6C0.27 27.1299 0 27.3999 0 27.7299V32.2499C0 32.5799 0.27 32.8499 0.6 32.8499H3.01V58.6199C3.01 58.6199 3.01 58.6399 3.01 58.6499C3.01 58.6499 3.01 58.6699 3.01 58.6799C3.01 59.0099 3.28 59.2799 3.61 59.2799C4.3 59.2799 4.62 59.3999 5 59.5399C5.42 59.6999 5.9 59.8799 6.81 59.8799C7.72 59.8799 8.2 59.6999 8.62 59.5399C8.99 59.3999 9.32 59.2799 10 59.2799C10.68 59.2799 11.01 59.3999 11.39 59.5399C11.81 59.6999 12.29 59.8799 13.2 59.8799C14.11 59.8799 14.59 59.6999 15.01 59.5399C15.38 59.3999 15.71 59.2799 16.4 59.2799C17.09 59.2799 17.41 59.3999 17.79 59.5399C18.21 59.6999 18.69 59.8799 19.6 59.8799C20.51 59.8799 20.99 59.6999 21.41 59.5399C21.79 59.3999 22.11 59.2799 22.8 59.2799C23.49 59.2799 23.82 59.3999 24.19 59.5399C24.61 59.6999 25.09 59.8799 26.01 59.8799C26.93 59.8799 27.4 59.6999 27.83 59.5399C28.21 59.3999 28.53 59.2799 29.22 59.2799C29.55 59.2799 29.82 59.0099 29.82 58.6799C29.82 58.3499 29.55 58.0799 29.22 58.0799L29.23 58.0699ZM1.21 28.3299H46.71V31.6499H1.21V28.3299Z" fill="#165DBA"/>
</g>
<defs>
<clipPath id="clip0_358_387">
<rect width="48.05" height="60" fill="white"/>
</clipPath>
</defs>
</svg>
