<svg width="46" height="60" viewBox="0 0 46 60" fill="none" xmlns="http://www.w3.org/2000/svg">
<path d="M45.4591 48.2093C45.1544 47.0335 44.5977 45.938 43.8276 44.9986C43.0575 44.0593 42.0924 43.2986 40.9991 42.7693L41.6191 42.5293C41.6937 42.5016 41.762 42.4593 41.8201 42.4049C41.8781 42.3505 41.9248 42.2851 41.9574 42.2126C41.99 42.14 42.0078 42.0616 42.0098 41.9821C42.0118 41.9026 41.998 41.8234 41.9691 41.7493C41.9109 41.6004 41.7966 41.4802 41.6507 41.4148C41.5048 41.3493 41.3391 41.3438 41.1891 41.3993L39.2891 42.1293C39.1407 42.1856 39.0201 42.2975 38.9529 42.4413C38.8857 42.585 38.8772 42.7493 38.9291 42.8993L39.5891 44.7793C39.6303 44.898 39.7072 45.0011 39.8092 45.0745C39.9112 45.1479 40.0334 45.188 40.1591 45.1893C40.225 45.2033 40.2932 45.2033 40.3591 45.1893C40.5086 45.1371 40.6314 45.0279 40.7007 44.8855C40.77 44.7431 40.7802 44.5792 40.7291 44.4293L40.5591 43.9293C41.7807 44.5606 42.7963 45.5281 43.4861 46.7177C44.1759 47.9073 44.5111 49.2693 44.4522 50.6431C44.3934 52.0169 43.9429 53.3453 43.1538 54.4715C42.3648 55.5977 41.2702 56.4748 39.9991 56.9993C39.8679 57.0497 39.7586 57.1446 39.6903 57.2674C39.6219 57.3902 39.5988 57.533 39.625 57.6711C39.6512 57.8092 39.725 57.9337 39.8336 58.0229C39.9421 58.1121 40.0786 58.1604 40.2191 58.1593C40.2951 58.1736 40.3731 58.1736 40.4491 58.1593C42.3515 57.3939 43.9097 55.9613 44.8319 54.1298C45.7541 52.2983 45.9771 50.1934 45.4591 48.2093Z" fill="#165DBA"/>
<path d="M35.9996 56.14C35.9048 56.0354 35.7762 55.9676 35.6364 55.9484C35.4966 55.9293 35.3545 55.96 35.2351 56.0352C35.1157 56.1104 35.0266 56.2254 34.9835 56.3597C34.9404 56.4941 34.9461 56.6394 34.9996 56.77L35.3096 57.26C33.8405 56.8297 32.5466 55.943 31.6151 54.7282C30.6836 53.5135 30.1628 52.0338 30.1283 50.5034C30.0938 48.9731 30.5472 47.4714 31.423 46.2159C32.2988 44.9604 33.5514 44.0162 34.9996 43.52L35.5196 43.36C35.5957 43.3397 35.6671 43.3045 35.7297 43.2566C35.7923 43.2086 35.8448 43.1488 35.8843 43.0806C35.9237 43.0123 35.9494 42.937 35.9597 42.8588C35.9701 42.7806 35.9649 42.7012 35.9446 42.625C35.9242 42.5489 35.889 42.4775 35.8411 42.4149C35.7931 42.3523 35.7333 42.2998 35.6651 42.2603C35.5968 42.2209 35.5215 42.1952 35.4433 42.1849C35.3652 42.1745 35.2857 42.1797 35.2096 42.2C35.0096 42.2467 34.8096 42.3067 34.6096 42.38C32.9137 42.9588 31.4468 44.0635 30.422 45.5334C29.3973 47.0033 28.8682 48.7618 28.9117 50.5531C28.9552 52.3445 29.569 54.0752 30.6639 55.4937C31.7588 56.9121 33.2776 57.9443 34.9996 58.44L34.4896 58.77C34.3548 58.858 34.2603 58.9957 34.2266 59.153C34.1929 59.3103 34.2227 59.4746 34.3096 59.61C34.3669 59.6924 34.4431 59.7599 34.5318 59.8069C34.6205 59.8538 34.7192 59.8789 34.8196 59.88C34.937 59.8797 35.0517 59.8449 35.1496 59.78L36.8596 58.67C36.9888 58.5824 37.0796 58.4485 37.1131 58.2959C37.1466 58.1434 37.1202 57.9838 37.0396 57.85L35.9996 56.14Z" fill="#165DBA"/>
<path d="M29.2696 57.4697C26.8583 58.368 24.3025 58.8154 21.7295 58.7897C18.9787 58.8668 16.2429 58.3584 13.7035 57.2981C11.164 56.2379 8.87889 54.65 6.99955 52.6397C4.85126 50.3145 3.31801 47.4893 2.53912 44.4209C1.76022 41.3525 1.76037 38.1381 2.53955 35.0697C2.53955 35.0697 2.53955 34.9497 2.53955 34.9297C2.95955 32.5297 14.9796 10.6397 19.5396 2.40974C19.7534 2.04688 20.0582 1.74609 20.4238 1.53712C20.7895 1.32815 21.2034 1.21823 21.6245 1.21823C22.0457 1.21823 22.4596 1.32815 22.8253 1.53712C23.1909 1.74609 23.4957 2.04688 23.7095 2.40974C28.3095 10.6497 40.3396 32.5397 40.7095 34.9397C40.705 34.9896 40.705 35.0398 40.7095 35.0897C40.9837 36.1651 41.1611 37.2628 41.2396 38.3697C41.2515 38.5289 41.3261 38.6767 41.4471 38.7808C41.5681 38.8849 41.7254 38.9367 41.8845 38.9247C42.0437 38.9128 42.1916 38.8382 42.2956 38.7172C42.3997 38.5962 42.4515 38.4389 42.4395 38.2797C42.3591 37.084 42.1649 35.8986 41.8596 34.7397C41.3296 31.7397 26.3795 4.86974 24.6695 1.81974C24.3518 1.26944 23.8948 0.812465 23.3445 0.494748C22.7942 0.17703 22.17 0.00976562 21.5345 0.00976562C20.8991 0.00976562 20.2749 0.17703 19.7246 0.494748C19.1743 0.812465 18.7173 1.26944 18.3995 1.81974C16.6995 4.81975 1.74955 31.6897 1.20955 34.8197C0.377638 38.0995 0.382063 41.5355 1.22242 44.8131C2.06278 48.0906 3.71219 51.1049 6.01955 53.5797C8.00474 55.6736 10.4077 57.327 13.0726 58.433C15.7376 59.5389 18.6051 60.0727 21.4895 59.9997H21.7295C24.4602 60.0367 27.1737 59.5618 29.7295 58.5997C29.8032 58.571 29.8705 58.528 29.9275 58.4732C29.9845 58.4184 30.0301 58.3529 30.0617 58.2804C30.0933 58.208 30.1103 58.1299 30.1116 58.0509C30.113 57.9718 30.0987 57.8933 30.0695 57.8197C30.042 57.7427 29.999 57.6722 29.9432 57.6124C29.8874 57.5526 29.82 57.5049 29.7451 57.4721C29.6702 57.4393 29.5893 57.4222 29.5076 57.4218C29.4258 57.4214 29.3448 57.4377 29.2696 57.4697Z" fill="#165DBA"/>
<path d="M29.6398 28.8994C29.5222 28.9019 29.4071 28.9345 29.3056 28.994C29.2041 29.0535 29.1195 29.138 29.0598 29.2394C29.0598 29.2394 25.3798 36.3294 25.2598 36.9994C25.0836 37.6969 25.0826 38.4272 25.2571 39.1251C25.4316 39.823 25.7761 40.4669 26.2598 40.9994C26.6847 41.4491 27.1982 41.8057 27.7679 42.0467C28.3377 42.2877 28.9513 42.4078 29.5698 42.3994H29.6798C30.2964 42.4156 30.9097 42.3041 31.4811 42.0717C32.0524 41.8394 32.5695 41.4913 32.9998 41.0494C33.4851 40.5179 33.8306 39.874 34.0052 39.1757C34.1797 38.4775 34.1779 37.7468 33.9998 37.0494C33.8898 36.3794 30.1998 29.2894 30.1998 29.2894C30.1509 29.1796 30.0729 29.0852 29.9742 29.0164C29.8755 28.9477 29.7599 28.9072 29.6398 28.8994ZM32.8498 37.2694C32.9785 37.7824 32.9763 38.3194 32.8435 38.8313C32.7107 39.3432 32.4516 39.8136 32.0898 40.1994C31.773 40.5239 31.393 40.7801 30.9734 40.9521C30.5537 41.124 30.1033 41.2082 29.6498 41.1994H29.5798C29.1295 41.2073 28.6823 41.1226 28.2661 40.9505C27.8498 40.7785 27.4733 40.5229 27.1598 40.1994C26.8 39.8087 26.5445 39.3335 26.4169 38.8179C26.2893 38.3023 26.2938 37.7629 26.4298 37.2494C26.6098 36.6894 28.1298 33.6394 29.6298 30.7194C31.1598 33.6894 32.6698 36.7294 32.8498 37.2694Z" fill="#165DBA"/>
</svg>
