<svg width="60" height="60" viewBox="0 0 60 60" fill="none" xmlns="http://www.w3.org/2000/svg">
<g clip-path="url(#clip0_358_305)">
<path d="M28.2997 36.1898C27.0919 36.2048 25.8942 35.969 24.7823 35.4974C23.6703 35.0258 22.6683 34.3285 21.8397 33.4498C20.8628 32.3906 20.1678 31.103 19.8183 29.7051C19.4688 28.3073 19.4762 26.8441 19.8397 25.4498C20.0597 24.1998 25.7097 14.0398 26.8397 12.0198C27.001 11.7348 27.235 11.4978 27.5178 11.3329C27.8007 11.168 28.1223 11.0811 28.4497 11.0811C28.7771 11.0811 29.0987 11.168 29.3815 11.3329C29.6644 11.4978 29.8984 11.7348 30.0597 12.0198C31.1897 14.0198 36.8397 24.1998 37.0597 25.4598C37.3818 26.7508 37.4002 28.0988 37.1137 29.3982C36.8271 30.6975 36.2434 31.9127 35.4082 32.9485C34.573 33.9842 33.5091 34.8123 32.3 35.3678C31.0909 35.9232 29.7696 36.1909 28.4397 36.1498L28.2997 36.1898ZM28.4097 34.9198H28.4997C29.5365 34.9363 30.5655 34.7368 31.521 34.334C32.4765 33.9311 33.3377 33.3337 34.0497 32.5798C34.8845 31.6859 35.4813 30.5966 35.7853 29.4119C36.0893 28.2273 36.0908 26.9852 35.7897 25.7998C35.6197 24.9298 32.1197 18.4098 28.9197 12.6698C28.8621 12.5913 28.7868 12.5274 28.7 12.4834C28.6131 12.4393 28.5171 12.4164 28.4197 12.4164C28.3223 12.4164 28.2263 12.4393 28.1394 12.4834C28.0525 12.5274 27.9773 12.5913 27.9197 12.6698C24.7197 18.4098 21.2297 24.9298 21.0697 25.6698C20.7564 26.861 20.7479 28.1119 21.045 29.3072C21.3421 30.5025 21.9352 31.6039 22.7697 32.5098C23.4813 33.2716 24.3446 33.8761 25.3039 34.2843C26.2632 34.6924 27.2973 34.8953 28.3397 34.8798L28.4097 34.9198Z" fill="black"/>
<path d="M31.5899 26.1792C31.7399 26.4892 31.8499 26.7392 31.8999 26.8492C31.9076 26.8903 31.9053 26.9327 31.8931 26.9728C31.8809 27.0128 31.8593 27.0493 31.8299 27.0792C31.753 27.1298 31.6619 27.1543 31.5699 27.1492C31.4864 27.1492 31.4054 27.121 31.3399 27.0692C31.3106 27.0393 31.2889 27.0028 31.2768 26.9628C31.2646 26.9227 31.2622 26.8803 31.2699 26.8392L31.5899 26.1792ZM31.5899 23.6592C31.5474 23.6588 31.5056 23.6697 31.4687 23.6908C31.4318 23.7119 31.4012 23.7424 31.3799 23.7792C31.3799 23.7792 30.0899 26.2692 30.0499 26.5092C29.9855 26.757 29.9847 27.0172 30.0476 27.2654C30.1105 27.5137 30.2352 27.742 30.4099 27.9292C30.5586 28.087 30.7386 28.2121 30.9383 28.2964C31.138 28.3808 31.3532 28.4226 31.5699 28.4192C31.7865 28.4208 32.001 28.3782 32.2005 28.2939C32.4 28.2097 32.5801 28.0855 32.7299 27.9292C32.9024 27.7405 33.0255 27.5122 33.0883 27.2644C33.1511 27.0167 33.1517 26.7572 33.0899 26.5092C33.0399 26.2692 31.7499 23.7792 31.7499 23.7792C31.7296 23.7438 31.7005 23.7143 31.6655 23.6933C31.6305 23.6723 31.5907 23.6605 31.5499 23.6592H31.5899Z" fill="black"/>
<path d="M37.14 44.4596H24.49C23.8897 44.4596 23.3138 44.6974 22.8884 45.1209C22.463 45.5445 22.2226 46.1193 22.22 46.7196V53.9996C22.22 54.8403 21.886 55.6466 21.2915 56.2411C20.697 56.8356 19.8907 57.1696 19.05 57.1696H6.19C4.88513 57.1696 3.63371 56.6513 2.71103 55.7286C1.78836 54.8059 1.27 53.5545 1.27 52.2496V7.78961C1.27264 6.48556 1.79185 5.23567 2.71395 4.31356C3.63606 3.39146 4.88595 2.87225 6.19 2.86961H50.64C51.9441 2.87225 53.1939 3.39146 54.116 4.31356C55.0382 5.23567 55.5574 6.48556 55.56 7.78961V33.9996C55.56 34.1667 55.6264 34.3269 55.7445 34.4451C55.8627 34.5632 56.0229 34.6296 56.19 34.6296C56.358 34.6296 56.5193 34.5636 56.639 34.4457C56.7588 34.3278 56.8274 34.1676 56.83 33.9996V7.78961C56.8274 6.14873 56.1743 4.57582 55.0141 3.41554C53.8538 2.25526 52.2809 1.60225 50.64 1.59961H6.19C4.54912 1.60225 2.97621 2.25526 1.81593 3.41554C0.655652 4.57582 0.00264445 6.14873 0 7.78961V52.2296C0 53.8713 0.652159 55.4458 1.81301 56.6066C2.97386 57.7675 4.54831 58.4196 6.19 58.4196H19.05C20.2241 58.4196 21.3504 57.9546 22.1825 57.1262C23.0146 56.2979 23.4847 55.1737 23.49 53.9996V46.7196C23.49 46.4544 23.5954 46.2 23.7829 46.0125C23.9704 45.825 24.2248 45.7196 24.49 45.7196H37.14C37.3071 45.7196 37.4673 45.6532 37.5855 45.5351C37.7036 45.4169 37.77 45.2567 37.77 45.0896C37.77 44.9225 37.7036 44.7623 37.5855 44.6441C37.4673 44.526 37.3071 44.4596 37.14 44.4596Z" fill="#165DBA"/>
<path d="M59.9403 43.9191C59.74 42.0062 59.0034 40.1887 57.8153 38.676C56.6273 37.1634 55.0361 36.0171 53.2251 35.3692C51.414 34.7212 49.4568 34.5981 47.5789 35.0138C45.7009 35.4296 43.9786 36.3674 42.6103 37.7191C41.1788 39.1465 40.2032 40.9667 39.8072 42.9491C39.4112 44.9314 39.6126 46.9867 40.3858 48.8545C41.1591 50.7223 42.4694 52.3186 44.1507 53.4409C45.8321 54.5633 47.8087 55.1613 49.8303 55.1591C50.1903 55.1591 50.5503 55.1591 50.9103 55.1591C53.213 54.913 55.3621 53.8861 57.0003 52.2491C57.2603 51.9891 57.5003 51.7191 57.7403 51.4391C58.585 50.3928 59.2144 49.1897 59.5919 47.899C59.9695 46.6084 60.0879 45.2558 59.9403 43.9191ZM50.7203 53.9191C48.924 54.1253 47.1074 53.782 45.5103 52.9345C43.9132 52.087 42.6106 50.7751 41.7744 49.1721C40.9382 47.569 40.6077 45.75 40.8266 43.9553C41.0454 42.1605 41.8033 40.4743 43.0003 39.1191L55.6203 51.7691C54.2465 52.9687 52.5346 53.7128 50.7203 53.8991V53.9191ZM56.7203 50.6491L56.5003 50.8891L43.9403 38.2191C45.3127 37.0251 47.0207 36.2846 48.8303 36.0991C49.162 36.0575 49.496 36.0375 49.8303 36.0391C51.5175 36.0491 53.168 36.5332 54.5933 37.4362C56.0186 38.3392 57.1614 39.6246 57.8913 41.1458C58.6212 42.6671 58.9087 44.3629 58.7211 46.0397C58.5335 47.7165 57.8783 49.3068 56.8303 50.6291L56.7203 50.6491Z" fill="#165DBA"/>
</g>
<defs>
<clipPath id="clip0_358_305">
<rect width="60" height="60" fill="white"/>
</clipPath>
</defs>
</svg>
