<svg width="40" height="60" viewBox="0 0 40 60" fill="none" xmlns="http://www.w3.org/2000/svg">
<path d="M19.9395 0C14.7677 0 9.80783 2.05446 6.15087 5.71142C2.49391 9.36838 0.439453 14.3283 0.439453 19.5V40.5C0.439453 45.6717 2.49391 50.6316 6.15087 54.2886C9.80783 57.9455 14.7677 60 19.9395 60C25.1112 60 30.0711 57.9455 33.728 54.2886C37.385 50.6316 39.4395 45.6717 39.4395 40.5V19.5C39.4368 14.3291 37.3815 9.37073 33.7251 5.71434C30.0687 2.05796 25.1104 0.00264971 19.9395 0V0ZM19.9395 58.8C15.0876 58.7947 10.436 56.865 7.00525 53.4342C3.57448 50.0034 1.64475 45.3518 1.63945 40.5V19.5C1.63945 14.6465 3.56748 9.99186 6.9994 6.55995C10.4313 3.12803 15.086 1.2 19.9395 1.2C24.7929 1.2 29.4476 3.12803 32.8795 6.55995C36.3114 9.99186 38.2395 14.6465 38.2395 19.5V40.5C38.2342 45.3518 36.3044 50.0034 32.8737 53.4342C29.4429 56.865 24.7913 58.7947 19.9395 58.8Z" fill="#165DBA"/>
<path d="M20.0602 9.69996C20.3678 9.69996 20.6629 9.82217 20.8804 10.0397C21.0979 10.2573 21.2202 10.5523 21.2202 10.86V15.66C21.2351 15.8207 21.2164 15.9827 21.1652 16.1358C21.1139 16.2888 21.0313 16.4295 20.9226 16.5488C20.8139 16.6681 20.6815 16.7634 20.5338 16.8287C20.3862 16.8939 20.2266 16.9275 20.0652 16.9275C19.9038 16.9275 19.7441 16.8939 19.5965 16.8287C19.4488 16.7634 19.3164 16.6681 19.2077 16.5488C19.099 16.4295 19.0164 16.2888 18.9652 16.1358C18.9139 15.9827 18.8952 15.8207 18.9102 15.66V10.86C18.9101 10.554 19.031 10.2605 19.2464 10.0432C19.4618 9.82597 19.7542 9.7026 20.0602 9.69996ZM20.0602 8.45996C19.4244 8.46259 18.8155 8.71629 18.366 9.16581C17.9165 9.61533 17.6628 10.2243 17.6602 10.86V15.66C17.6602 16.2965 17.913 16.9069 18.3631 17.357C18.8132 17.8071 19.4236 18.06 20.0602 18.06C20.6967 18.06 21.3071 17.8071 21.7572 17.357C22.2073 16.9069 22.4602 16.2965 22.4602 15.66V10.86C22.4602 10.2234 22.2073 9.61299 21.7572 9.1629C21.3071 8.71282 20.6967 8.45996 20.0602 8.45996Z" fill="#165DBA"/>
</svg>
