<svg width="58" height="60" viewBox="0 0 58 60" fill="none" xmlns="http://www.w3.org/2000/svg">
<path d="M29.0006 28.7C29.1624 28.7 29.3176 28.6357 29.432 28.5213C29.5464 28.4069 29.6106 28.2518 29.6106 28.09V0.61C29.6106 0.448218 29.5464 0.293062 29.432 0.178665C29.3176 0.0642677 29.1624 0 29.0006 0C28.8388 0 28.6837 0.0642677 28.5693 0.178665C28.4549 0.293062 28.3906 0.448218 28.3906 0.61V28.09C28.3906 28.2518 28.4549 28.4069 28.5693 28.5213C28.6837 28.6357 28.8388 28.7 29.0006 28.7Z" fill="#165DBA"/>
<path d="M32.1207 2.45974C32.0378 2.44461 31.9526 2.44683 31.8706 2.46626C31.7886 2.48569 31.7115 2.52192 31.6441 2.57265C31.5768 2.62338 31.5207 2.68751 31.4794 2.761C31.4381 2.83449 31.4125 2.91574 31.4042 2.99963C31.3959 3.08352 31.405 3.16822 31.4311 3.24839C31.4572 3.32856 31.4996 3.40246 31.5556 3.46543C31.6117 3.52839 31.6801 3.57906 31.7568 3.61422C31.8334 3.64939 31.9165 3.66829 32.0007 3.66974C39.0322 4.43718 45.5021 7.8701 50.0797 13.2623C54.6572 18.6545 56.9942 25.596 56.6099 32.6587C56.2256 39.7215 53.1493 46.3684 48.0137 51.2321C42.8781 56.0958 36.0739 58.8065 29.0007 58.8065C21.9276 58.8065 15.1233 56.0958 9.98777 51.2321C4.85221 46.3684 1.77586 39.7215 1.39157 32.6587C1.00729 25.596 3.34429 18.6545 7.92182 13.2623C12.4994 7.8701 18.9693 4.43718 26.0007 3.66974C26.0808 3.66121 26.1585 3.63698 26.2292 3.59843C26.3 3.55989 26.3624 3.5078 26.413 3.44512C26.4636 3.38244 26.5014 3.3104 26.5242 3.23313C26.5469 3.15585 26.5543 3.07485 26.5457 2.99474C26.5372 2.91464 26.513 2.837 26.4744 2.76625C26.4359 2.69551 26.3838 2.63305 26.3211 2.58245C26.2584 2.53184 26.1864 2.49407 26.1091 2.4713C26.0318 2.44853 25.9508 2.44121 25.8707 2.44974C18.5233 3.2443 11.76 6.82536 6.97303 12.4558C2.18609 18.0862 -0.260239 25.3375 0.137618 32.7171C0.535474 40.0967 3.74723 47.0429 9.11179 52.1261C14.4763 57.2092 21.5854 60.0423 28.9757 60.0423C36.366 60.0423 43.4751 57.2092 48.8397 52.1261C54.2042 47.0429 57.416 40.0967 57.8139 32.7171C58.2117 25.3375 55.7654 18.0862 50.9784 12.4558C46.1915 6.82536 39.4282 3.2443 32.0807 2.44974L32.1207 2.45974Z" fill="#165DBA"/>
</svg>
