<svg width="29" height="28" viewBox="0 0 29 28" fill="none" xmlns="http://www.w3.org/2000/svg">
<path d="M10.2547 19.9372L10.2624 19.9397H10.2705H10.271H10.2715H10.272H10.2726H10.2731H10.2736H10.2741H10.2746H10.2751H10.2756H10.2761H10.2767H10.2772H10.2777H10.2782H10.2786H10.2791H10.2796H10.2801H10.2806H10.2811H10.2816H10.2821H10.2826H10.283H10.2835H10.284H10.2845H10.2849H10.2854H10.2859H10.2863H10.2868H10.2873H10.2877H10.2882H10.2886H10.2891H10.2895H10.29H10.2905H10.2909H10.2913H10.2918H10.2922H10.2927H10.2931H10.2936H10.294H10.2944H10.2949H10.2953H10.2957H10.2962H10.2966H10.297H10.2974H10.2979H10.2983H10.2987H10.2991H10.2995H10.2999H10.3004H10.3008H10.3012H10.3016H10.302H10.3024H10.3028H10.3032H10.3036H10.304H10.3044H10.3048H10.3052H10.3056H10.306H10.3064H10.3068H10.3071H10.3075H10.3079H10.3083H10.3087H10.3091H10.3094H10.3098H10.3102H10.3106H10.3109H10.3113H10.3117H10.3121H10.3124H10.3128H10.3132H10.3135H10.3139H10.3142H10.3146H10.315H10.3153H10.3157H10.316H10.3164H10.3167H10.3171H10.3174H10.3178H10.3181H10.3185H10.3188H10.3192H10.3195H10.3199H10.3202H10.3206H10.3209H10.3212H10.3216H10.3219H10.3222H10.3226H10.3229H10.3232H10.3236H10.3239H10.3242H10.3246H10.3249H10.3252H10.3255H10.3259H10.3262H10.3265H10.3268H10.3272H10.3275H10.3278H10.3281H10.3284H10.3287H10.3291H10.3294H10.3297H10.33H10.3303H10.3306H10.3309H10.3312H10.3315H10.3318H10.3322H10.3325H10.3328H10.3331H10.3334H10.3337H10.334H10.3343H10.3346H10.3349H10.3352H10.3355H10.3358H10.3361H10.3364H10.3366H10.3369H10.3372H10.3375H10.3378H10.3381H10.3384H10.3387H10.339H10.3393H10.3396H10.3398H10.3401H10.3404H10.3407H10.341H10.3413H10.3416H10.3418H10.3421H10.3424H10.3427H10.343H10.3432H10.3435H10.3438H10.3441H10.3444H10.3446H10.3449H10.3452H10.3455H10.3457H10.346H10.3463H10.3466H10.3468H10.3471H10.3474H10.3477H10.3479H10.3482H10.3485H10.3488H10.349H10.3493H10.3496H10.3498H10.3501H10.3504H10.3506H10.3509H10.3512H10.3515H10.3517H10.352H10.3523H10.3525H10.3528H10.3531H10.3533H10.3536H10.3539H10.3541H10.3544H10.3547H10.3549H10.3552H10.3555H10.3557H10.356H10.3562H10.3565H10.3568H10.357H10.3573H10.3576H10.3578H10.3581H10.3584H10.3586H10.3589H10.3592H10.3594H10.3597H10.3599H10.3602H10.3605H10.3607H10.361H10.3613H10.3615H10.3618H10.3621H10.3623H10.3626H10.3628H10.3631H10.3634H10.3636H10.3639H10.3642H10.3644H10.3647H10.365H10.3652H10.3655H10.3658H10.366H10.3663H10.3665H10.3668H10.3671H10.3673H10.3676H10.3679H10.3681H10.3684H10.3687H10.369H10.3692H10.3695H10.3698H10.37H10.3703H10.3706H10.3708H10.3711H10.3714H10.3716H10.3719H10.3722H10.3725H10.3727H10.373H10.3733H10.3735H10.3738H10.3741H10.3744H10.3746H10.3749H10.3752H10.3755H10.3757H10.376H10.3763H10.3766H10.3769H10.3771H10.3774H10.3777H10.378H10.3783H10.3785H10.3788H10.3791H10.3794H10.3797H10.38H10.3802H10.3805H10.3808H10.3811H10.3814H10.3817H10.382H10.3822H10.3825H10.3828H10.3831H10.3834H10.3837H10.384H10.3843H10.3846H10.3849H10.3852H10.3855H10.3858H10.3861H10.3864H10.3867H10.387H10.3873H10.3876H10.3879H10.3882H10.3885H10.3888H10.3891H10.3894H10.3897H10.39H10.3903H10.3906H10.3909H10.3913H10.3916H10.3919H10.3922H10.3925H10.3928H10.3931H10.3935H10.3938H10.3941H10.3944H10.3947H10.3951H10.3954H10.3957H10.396H10.3964H10.3967H10.397H10.3974H10.3977H10.398H10.3984H10.3987H10.399H10.3994H10.3997H10.4H10.4004H10.4007H10.4011H10.4014H10.4018H10.4021H10.4024H10.4028H10.4031H10.4035H10.4038H10.4042H10.4045H10.4049H10.4053H10.4056H10.406H10.4063H10.4067H10.4071H10.4074H10.4078H10.4081H10.4085H10.4089H10.4093H10.4096H10.41H10.4104H10.4107H10.4111H10.4115H10.4119H10.4123H10.4126H10.413H10.4134H10.4138H10.4142H10.4146H10.415H10.4154H10.4158H10.4161H10.4165H10.4169H10.4173H10.4177H10.4181H10.4185H10.419H10.4194H10.4198H10.4202H10.4206H10.421H10.4214H10.4218H10.4222H10.4227H10.4231H10.4235H10.4239H10.4244H10.4248H10.4252H10.4256H10.4261H10.4265H10.4269H10.4274H10.4278H10.4283H10.4287H10.4291H10.4296H10.43H10.4305H10.4309H10.4314H10.4318H10.4323H10.4328H10.4332H10.4337H10.4341H10.4346H10.4351H10.4355H10.436H10.4365H10.437H10.4374H10.4379H10.4384H10.4389H10.4394H10.4398H10.4403H10.4408H10.4413H10.4418H10.4423H10.4428H10.4433H10.4438H10.4443H10.4448H10.4453H10.4458H10.4463H10.4468H10.4473H10.4479H10.4484H10.4489H10.4494H10.4499H10.4505H18.5505C18.7381 19.9397 18.9078 19.8929 19.0317 19.7938C19.1571 19.6935 19.2305 19.5435 19.2305 19.3497C19.2305 19.1621 19.1836 18.9924 19.0845 18.8685C18.9842 18.7431 18.8343 18.6697 18.6405 18.6697H18.6399H18.6394H18.6389H18.6384H18.6379H18.6373H18.6368H18.6363H18.6358H18.6353H18.6348H18.6343H18.6338H18.6333H18.6328H18.6323H18.6318H18.6313H18.6308H18.6303H18.6298H18.6294H18.6289H18.6284H18.6279H18.6274H18.627H18.6265H18.626H18.6255H18.6251H18.6246H18.6241H18.6237H18.6232H18.6228H18.6223H18.6218H18.6214H18.6209H18.6205H18.62H18.6196H18.6191H18.6187H18.6183H18.6178H18.6174H18.6169H18.6165H18.6161H18.6156H18.6152H18.6148H18.6144H18.6139H18.6135H18.6131H18.6127H18.6122H18.6118H18.6114H18.611H18.6106H18.6102H18.6098H18.6094H18.609H18.6085H18.6081H18.6077H18.6073H18.6069H18.6065H18.6061H18.6058H18.6054H18.605H18.6046H18.6042H18.6038H18.6034H18.603H18.6026H18.6023H18.6019H18.6015H18.6011H18.6007H18.6004H18.6H18.5996H18.5993H18.5989H18.5985H18.5981H18.5978H18.5974H18.5971H18.5967H18.5963H18.596H18.5956H18.5953H18.5949H18.5945H18.5942H18.5938H18.5935H18.5931H18.5928H18.5924H18.5921H18.5918H18.5914H18.5911H18.5907H18.5904H18.59H18.5897H18.5894H18.589H18.5887H18.5884H18.588H18.5877H18.5874H18.587H18.5867H18.5864H18.586H18.5857H18.5854H18.5851H18.5847H18.5844H18.5841H18.5838H18.5835H18.5831H18.5828H18.5825H18.5822H18.5819H18.5816H18.5813H18.5809H18.5806H18.5803H18.58H18.5797H18.5794H18.5791H18.5788H18.5785H18.5782H18.5779H18.5776H18.5773H18.577H18.5767H18.5764H18.5761H18.5758H18.5755H18.5752H18.5749H18.5746H18.5743H18.574H18.5737H18.5734H18.5731H18.5728H18.5725H18.5722H18.572H18.5717H18.5714H18.5711H18.5708H18.5705H18.5702H18.57H18.5697H18.5694H18.5691H18.5688H18.5685H18.5683H18.568H18.5677H18.5674H18.5671H18.5669H18.5666H18.5663H18.566H18.5657H18.5655H18.5652H18.5649H18.5646H18.5644H18.5641H18.5638H18.5635H18.5633H18.563H18.5627H18.5625H18.5622H18.5619H18.5616H18.5614H18.5611H18.5608H18.5606H18.5603H18.56H18.5598H18.5595H18.5592H18.559H18.5587H18.5584H18.5581H18.5579H18.5576H18.5573H18.5571H18.5568H18.5566H18.5563H18.556H18.5558H18.5555H18.5552H18.555H18.5547H18.5544H18.5542H18.5539H18.5536H18.5534H18.5531H18.5528H18.5526H18.5523H18.5521H18.5518H18.5515H18.5513H18.551H18.5507H18.5505H18.5502H18.5499H18.5497H18.5494H18.5492H18.5489H18.5486H18.5484H18.5481H18.5478H18.5476H18.5473H18.547H18.5468H18.5465H18.5462H18.546H18.5457H18.5455H18.5452H18.5449H18.5447H18.5444H18.5441H18.5439H18.5436H18.5433H18.5431H18.5428H18.5425H18.5423H18.542H18.5417H18.5415H18.5412H18.5409H18.5406H18.5404H18.5401H18.5398H18.5396H18.5393H18.539H18.5388H18.5385H18.5382H18.5379H18.5377H18.5374H18.5371H18.5368H18.5366H18.5363H18.536H18.5357H18.5355H18.5352H18.5349H18.5346H18.5344H18.5341H18.5338H18.5335H18.5332H18.533H18.5327H18.5324H18.5321H18.5318H18.5316H18.5313H18.531H18.5307H18.5304H18.5301H18.5298H18.5296H18.5293H18.529H18.5287H18.5284H18.5281H18.5278H18.5275H18.5272H18.5269H18.5266H18.5264H18.5261H18.5258H18.5255H18.5252H18.5249H18.5246H18.5243H18.524H18.5237H18.5234H18.5231H18.5228H18.5225H18.5222H18.5218H18.5215H18.5212H18.5209H18.5206H18.5203H18.52H18.5197H18.5194H18.5191H18.5187H18.5184H18.5181H18.5178H18.5175H18.5172H18.5168H18.5165H18.5162H18.5159H18.5155H18.5152H18.5149H18.5146H18.5142H18.5139H18.5136H18.5132H18.5129H18.5126H18.5122H18.5119H18.5116H18.5112H18.5109H18.5106H18.5102H18.5099H18.5095H18.5092H18.5088H18.5085H18.5081H18.5078H18.5074H18.5071H18.5067H18.5064H18.506H18.5057H18.5053H18.505H18.5046H18.5042H18.5039H18.5035H18.5032H18.5028H18.5024H18.5021H18.5017H18.5013H18.5009H18.5006H18.5002H18.4998H18.4994H18.4991H18.4987H18.4983H18.4979H18.4975H18.4971H18.4968H18.4964H18.496H18.4956H18.4952H18.4948H18.4944H18.494H18.4936H18.4932H18.4928H18.4924H18.492H18.4916H18.4912H18.4908H18.4904H18.4899H18.4895H18.4891H18.4887H18.4883H18.4879H18.4874H18.487H18.4866H18.4862H18.4857H18.4853H18.4849H18.4844H18.484H18.4836H18.4831H18.4827H18.4822H18.4818H18.4813H18.4809H18.4805H18.48H18.4795H18.4791H18.4786H18.4782H18.4777H18.4773H18.4768H18.4763H18.4759H18.4754H18.4749H18.4745H18.474H18.4735H18.473H18.4725H18.4721H18.4716H18.4711H18.4706H18.4701H18.4696H18.4691H18.4686H18.4682H18.4677H18.4672H18.4667H18.4661H18.4656H18.4651H18.4646H18.4641H18.4636H18.4631H18.4626H18.462H18.4615H18.461H18.4605H10.3605C10.1728 18.6697 10.0031 18.7166 9.87923 18.8157C9.75384 18.916 9.68047 19.0659 9.68047 19.2597C9.68047 19.6529 9.97813 19.845 10.2547 19.9372Z" fill="#404040" stroke="#404040" stroke-width="0.1"/>
<path d="M4.40309 9.31704L4.41079 9.31961H4.41891H6.03287C6.22597 9.36599 6.39837 9.31711 6.52235 9.20552C6.64674 9.09358 6.71891 8.92187 6.71891 8.72961C6.71891 8.34708 6.43134 8.04961 6.12891 8.04961H4.41891C4.21994 8.04961 4.07098 8.14987 3.97347 8.28395C3.87683 8.41683 3.82891 8.58478 3.82891 8.72961C3.82891 8.88307 3.90609 9.00817 4.01444 9.10448C4.12234 9.2004 4.26407 9.2707 4.40309 9.31704Z" fill="#404040" stroke="#404040" stroke-width="0.1"/>
<path d="M5.32141 15.5296H6.35141V22.3196C6.35141 24.9584 8.53504 27.0496 11.1714 27.0496H17.9214C20.559 27.0496 22.6514 24.9572 22.6514 22.3196V15.5296H23.7714H23.7795L23.7872 15.527C24.0638 15.4348 24.3614 15.2428 24.3614 14.8496C24.3614 14.656 24.2883 14.5072 24.1759 14.4072C24.0643 14.3081 23.9171 14.2596 23.7714 14.2596H5.32141C4.93888 14.2596 4.64141 14.5471 4.64141 14.8496C4.64141 15.2372 4.93379 15.5296 5.32141 15.5296ZM21.3814 22.3196C21.3814 24.2711 19.7846 25.7796 17.9214 25.7796H11.1714C9.21985 25.7796 7.71141 24.1828 7.71141 22.3196V15.7096H21.3814V22.3196Z" fill="#404040" stroke="#404040" stroke-width="0.1"/>
<path d="M18.5503 21.5496H10.4503C10.0627 21.5496 9.77031 21.842 9.77031 22.2296C9.77031 22.6172 10.0627 22.9096 10.4503 22.9096H18.5503C18.9328 22.9096 19.2303 22.622 19.2303 22.3196C19.2303 22.0846 19.1597 21.8918 19.0373 21.7572C18.9147 21.6223 18.7434 21.5496 18.5503 21.5496Z" fill="#404040" stroke="#404040" stroke-width="0.1"/>
<path d="M24.85 5.34994H22.65V5.21994C22.65 2.58232 20.5576 0.489937 17.92 0.489937H11.1709C8.53323 0.399457 6.35 2.49168 6.35 5.12994V5.34994H4.15C2.41239 5.34994 0.95 6.81232 0.95 8.54994V17.3699C0.95 19.1076 2.41239 20.5699 4.15 20.5699H5.32C5.70761 20.5699 6 20.2776 6 19.8899C6 19.6977 5.92783 19.526 5.80345 19.414C5.67946 19.3024 5.50706 19.2536 5.31396 19.2999H4.15C3.09761 19.2999 2.22 18.4223 2.22 17.3699V8.54994C2.22 7.49755 3.09761 6.61994 4.15 6.61994H24.76C25.8124 6.61994 26.69 7.49755 26.69 8.54994V17.3699C26.69 18.4223 25.8124 19.2999 24.76 19.2999H23.68C23.2975 19.2999 23 19.5875 23 19.8899C23 20.2776 23.2924 20.5699 23.68 20.5699H24.76C26.4976 20.5699 27.96 19.1076 27.96 17.3699V8.55126C28.0508 6.81165 26.5866 5.34994 24.85 5.34994ZM7.62035 5.16994C7.64735 3.24268 9.23272 1.75994 11.08 1.75994H17.83C19.7641 1.75994 21.2629 3.32824 21.2896 5.16994H7.62035Z" fill="#404040" stroke="#404040" stroke-width="0.1"/>
</svg>
