<svg width="60" height="60" viewBox="0 0 60 60" fill="none" xmlns="http://www.w3.org/2000/svg">
<g clip-path="url(#clip0_358_119)">
<path d="M44.8194 15.2901C44.7644 15.233 44.6984 15.1875 44.6254 15.1564C44.5523 15.1254 44.4738 15.1094 44.3944 15.1094C44.3151 15.1094 44.2365 15.1254 44.1635 15.1564C44.0905 15.1875 44.0245 15.233 43.9694 15.2901C43.9135 15.3459 43.8691 15.4121 43.8388 15.485C43.8086 15.558 43.793 15.6362 43.793 15.7151C43.793 15.7941 43.8086 15.8723 43.8388 15.9452C43.8691 16.0182 43.9135 16.0844 43.9694 16.1401C45.8121 17.9508 47.2763 20.1098 48.2766 22.4916C49.277 24.8735 49.7936 27.4305 49.7964 30.0139C49.7992 32.5972 49.2881 35.1554 48.2929 37.5393C47.2977 39.9233 45.8382 42.0855 43.9994 43.9001C43.8889 44.014 43.827 44.1664 43.827 44.3251C43.827 44.4838 43.8889 44.6363 43.9994 44.7501C44.116 44.8593 44.2697 44.92 44.4294 44.9201C44.508 44.9201 44.5857 44.9042 44.6579 44.8732C44.7301 44.8423 44.7953 44.797 44.8494 44.7401C46.8029 42.8176 48.3544 40.5255 49.4134 37.9975C50.4723 35.4695 51.0177 32.756 51.0177 30.0151C51.0177 27.2743 50.4723 24.5608 49.4134 22.0328C48.3544 19.5047 46.8029 17.2127 44.8494 15.2901H44.8194Z" fill="#165DBA"/>
<path d="M34.57 6.46973C33.9152 6.47331 33.2795 6.69106 32.76 7.08973L17.35 18.8597C16.8238 19.259 16.1805 19.4734 15.52 19.4697H6C4.4087 19.4697 2.88258 20.1019 1.75736 21.2271C0.632141 22.3523 0 23.8784 0 25.4697L0 34.4697C0 36.061 0.632141 37.5871 1.75736 38.7124C2.88258 39.8376 4.4087 40.4697 6 40.4697H15.5C16.1605 40.4661 16.8038 40.6805 17.33 41.0797L32.76 52.9097C33.2795 53.3084 33.9152 53.5261 34.57 53.5297C35.3657 53.5297 36.1287 53.2137 36.6913 52.651C37.2539 52.0884 37.57 51.3254 37.57 50.5297V9.52973C37.578 9.13074 37.5063 8.73417 37.3591 8.36324C37.2119 7.99231 36.9922 7.65447 36.7128 7.36951C36.4334 7.08455 36.1 6.85819 35.7321 6.70369C35.3641 6.54919 34.9691 6.46965 34.57 6.46973ZM36.39 50.5197C36.3874 51.0007 36.1944 51.461 35.8534 51.8002C35.5124 52.1394 35.051 52.3297 34.57 52.3297C34.1835 52.3413 33.804 52.2254 33.49 51.9997L18.08 40.1897C17.3448 39.6275 16.4455 39.3218 15.52 39.3197H6C4.72686 39.3144 3.50751 38.8057 2.60819 37.9045C1.70887 37.0033 1.20263 35.7829 1.2 34.5097V25.5097C1.19734 24.2331 1.70124 23.0076 2.60113 22.1021C3.50102 21.1966 4.72339 20.685 6 20.6797H15.5C16.4255 20.6776 17.3248 20.372 18.06 19.8097L33.49 8.04973C33.7976 7.80624 34.1777 7.67249 34.57 7.66973C35.051 7.66972 35.5124 7.8601 35.8534 8.19925C36.1944 8.53841 36.3874 8.99877 36.39 9.47973V50.5197Z" fill="#165DBA"/>
<path d="M51.1792 8.77984C51.0654 8.66927 50.9129 8.60742 50.7542 8.60742C50.5955 8.60742 50.443 8.66927 50.3292 8.77984C50.272 8.83489 50.2266 8.9009 50.1955 8.97392C50.1644 9.04695 50.1484 9.12549 50.1484 9.20484C50.1484 9.2842 50.1644 9.36274 50.1955 9.43577C50.2266 9.50879 50.272 9.5748 50.3292 9.62984C53.0039 12.2896 55.1285 15.4502 56.5816 18.9311C58.0347 22.412 58.7878 26.145 58.798 29.9171C58.8082 33.6891 58.0753 37.4262 56.6411 40.9149C55.2069 44.4036 53.0995 47.5757 50.4392 50.2498C50.3286 50.3637 50.2668 50.5161 50.2668 50.6748C50.2668 50.8335 50.3286 50.986 50.4392 51.0998C50.4952 51.157 50.5622 51.2024 50.636 51.2333C50.7099 51.2642 50.7891 51.28 50.8692 51.2798C50.9477 51.2798 51.0255 51.2639 51.0977 51.2329C51.1699 51.202 51.235 51.1567 51.2892 51.0998C54.0613 48.3142 56.2575 45.0097 57.7523 41.3751C59.2471 37.7405 60.0112 33.847 60.001 29.9171C59.9908 25.9871 59.2064 22.0977 57.6928 18.4709C56.1791 14.8441 53.9658 11.5511 51.1792 8.77984Z" fill="#165DBA"/>
</g>
<defs>
<clipPath id="clip0_358_119">
<rect width="60" height="60" fill="white"/>
</clipPath>
</defs>
</svg>
