<svg width="55" height="55" viewBox="0 0 55 55" fill="none" xmlns="http://www.w3.org/2000/svg">
<g clip-path="url(#clip0_358_219)">
<path d="M52.415 1.58594H2.585C1.89857 1.58836 1.24109 1.86275 0.75657 2.34898C0.27205 2.83522 -4.28539e-06 3.49367 0 4.1801L0 15.1801C0 15.8657 0.272347 16.5232 0.757129 17.008C1.24191 17.4928 1.89942 17.7651 2.585 17.7651H52.415C53.1006 17.7651 53.7581 17.4928 54.2429 17.008C54.7277 16.5232 55 15.8657 55 15.1801V4.1801C55 3.49367 54.728 2.83522 54.2434 2.34898C53.7589 1.86275 53.1014 1.58836 52.415 1.58594ZM53.7075 15.1801C53.7099 15.3518 53.6783 15.5223 53.6146 15.6817C53.5508 15.8412 53.4562 15.9865 53.336 16.1091C53.2159 16.2318 53.0726 16.3296 52.9146 16.3967C52.7565 16.4638 52.5867 16.4989 52.415 16.5001H2.585C2.24295 16.4977 1.91559 16.3608 1.67372 16.1189C1.43184 15.877 1.2949 15.5497 1.2925 15.2076V4.2076C1.28885 4.03514 1.31952 3.86366 1.38273 3.70315C1.44593 3.54264 1.54041 3.39629 1.66068 3.27262C1.78094 3.14894 1.92459 3.05041 2.08327 2.98274C2.24195 2.91507 2.4125 2.87961 2.585 2.87844H52.415C52.7586 2.88086 53.0874 3.01906 53.3295 3.26291C53.5716 3.50676 53.7075 3.83646 53.7075 4.1801V15.1801Z" fill="#165DBA"/>
<path d="M52.4151 19.3789H2.58515C2.24292 19.3801 1.90431 19.449 1.58883 19.5816C1.27335 19.7142 0.987223 19.908 0.746942 20.1517C0.506661 20.3954 0.316972 20.6842 0.188802 21.0015C0.0606326 21.3188 -0.00348398 21.6584 0.000145942 22.0006V33.0006C0.000145942 33.6862 0.272493 34.3437 0.757275 34.8284C1.24206 35.3132 1.89956 35.5856 2.58515 35.5856H52.4151C53.1007 35.5856 53.7582 35.3132 54.243 34.8284C54.7278 34.3437 55.0001 33.6862 55.0001 33.0006V22.0006C55.0038 21.6584 54.9397 21.3188 54.8115 21.0015C54.6833 20.6842 54.4936 20.3954 54.2534 20.1517C54.0131 19.908 53.7269 19.7142 53.4115 19.5816C53.096 19.449 52.7574 19.3801 52.4151 19.3789ZM53.7076 33.0006C53.7076 33.3434 53.5715 33.6721 53.3291 33.9145C53.0867 34.1569 52.7579 34.2931 52.4151 34.2931H2.58515C2.24235 34.2931 1.9136 34.1569 1.67121 33.9145C1.42882 33.6721 1.29265 33.3434 1.29265 33.0006V22.0006C1.29265 21.6578 1.42882 21.329 1.67121 21.0866C1.9136 20.8442 2.24235 20.7081 2.58515 20.7081H52.4151C52.5849 20.7081 52.753 20.7415 52.9098 20.8065C53.0666 20.8714 53.2091 20.9666 53.3291 21.0866C53.4491 21.2067 53.5443 21.3491 53.6093 21.506C53.6742 21.6628 53.7076 21.8308 53.7076 22.0006V33.0006Z" fill="#165DBA"/>
<path d="M52.415 37.1797H2.585C1.89942 37.1797 1.24191 37.452 0.757129 37.9368C0.272347 38.4216 0 39.0791 0 39.7647L0 50.7647C0 51.4503 0.272347 52.1078 0.757129 52.5926C1.24191 53.0773 1.89942 53.3497 2.585 53.3497H52.415C53.1006 53.3497 53.7581 53.0773 54.2429 52.5926C54.7277 52.1078 55 51.4503 55 50.7647V39.7647C55 39.0791 54.7277 38.4216 54.2429 37.9368C53.7581 37.452 53.1006 37.1797 52.415 37.1797ZM53.7075 50.7647C53.7075 51.1075 53.5713 51.4362 53.3289 51.6786C53.0865 51.921 52.7578 52.0572 52.415 52.0572H2.585C2.24221 52.0572 1.91346 51.921 1.67106 51.6786C1.42867 51.4362 1.2925 51.1075 1.2925 50.7647V39.7647C1.29969 39.4267 1.43904 39.105 1.68065 38.8685C1.92227 38.632 2.24692 38.4996 2.585 38.4997H52.415C52.7578 38.4997 53.0865 38.6359 53.3289 38.8783C53.5713 39.1206 53.7075 39.4494 53.7075 39.7922V50.7647Z" fill="#165DBA"/>
<path d="M6.47216 6.41699C5.83218 6.41699 5.20656 6.60677 4.67443 6.96233C4.1423 7.31789 3.72756 7.82325 3.48264 8.41453C3.23773 9.0058 3.17365 9.65642 3.29851 10.2841C3.42336 10.9118 3.73154 11.4884 4.18408 11.9409C4.63662 12.3934 5.21319 12.7016 5.84088 12.8265C6.46857 12.9513 7.11919 12.8873 7.71046 12.6423C8.30173 12.3974 8.8071 11.9827 9.16266 11.4506C9.51822 10.9184 9.708 10.2928 9.708 9.65283C9.708 8.79463 9.36708 7.97158 8.76024 7.36475C8.15341 6.75791 7.33036 6.41699 6.47216 6.41699ZM6.47216 11.587C6.08742 11.587 5.71133 11.4728 5.39156 11.2588C5.07178 11.0449 4.82271 10.7408 4.6759 10.3852C4.52908 10.0296 4.49114 9.63837 4.56687 9.26115C4.6426 8.88393 4.8286 8.53768 5.10129 8.26627C5.37399 7.99486 5.72112 7.8105 6.09869 7.73656C6.47626 7.66261 6.86728 7.7024 7.22222 7.8509C7.57715 7.99939 7.88002 8.2499 8.09245 8.57068C8.30488 8.89146 8.41731 9.26809 8.4155 9.65283C8.41792 9.90957 8.36944 10.1642 8.27286 10.4021C8.17629 10.64 8.03353 10.8564 7.85283 11.0388C7.67213 11.2212 7.45708 11.366 7.2201 11.4648C6.98312 11.5636 6.72892 11.6145 6.47216 11.6145V11.587Z" fill="#165DBA"/>
<path d="M6.47205 24.2363C5.83324 24.2364 5.20872 24.4255 4.6772 24.7798C4.14569 25.1342 3.73095 25.6379 3.48525 26.2276C3.23955 26.8173 3.17388 27.4665 3.29652 28.0934C3.41917 28.7203 3.72463 29.2969 4.17442 29.7505C4.62422 30.2042 5.19821 30.5145 5.82408 30.6424C6.44995 30.7704 7.09968 30.7102 7.69141 30.4695C8.28314 30.2288 8.79038 29.8183 9.14923 29.2898C9.50807 28.7613 9.70245 28.1384 9.70788 27.4997C9.71151 27.0724 9.63049 26.6487 9.46951 26.2529C9.30852 25.8571 9.07074 25.4972 8.7699 25.1938C8.46907 24.8904 8.11112 24.6496 7.71673 24.4852C7.32234 24.3209 6.89931 24.2363 6.47205 24.2363ZM6.47205 29.4155C6.08653 29.4155 5.70973 29.3008 5.38958 29.086C5.06944 28.8712 4.8204 28.5661 4.67416 28.2094C4.52792 27.8526 4.49107 27.4605 4.56831 27.0828C4.64555 26.7051 4.83339 26.3589 5.10792 26.0883C5.38246 25.8176 5.7313 25.6347 6.11006 25.5629C6.48882 25.491 6.8804 25.5335 7.23498 25.6848C7.58956 25.8361 7.89113 26.0894 8.10132 26.4126C8.31151 26.7358 8.42084 27.1142 8.41538 27.4997C8.40815 28.0103 8.20022 28.4975 7.83656 28.8561C7.47289 29.2146 6.98272 29.4155 6.47205 29.4155Z" fill="#165DBA"/>
<path d="M6.47216 42.0293C5.83218 42.0293 5.20656 42.2191 4.67443 42.5746C4.1423 42.9302 3.72756 43.4356 3.48264 44.0268C3.23773 44.6181 3.17365 45.2687 3.29851 45.8964C3.42336 46.5241 3.73154 47.1007 4.18408 47.5532C4.63662 48.0057 5.21319 48.3139 5.84088 48.4388C6.46857 48.5636 7.11919 48.4996 7.71046 48.2546C8.30173 48.0097 8.8071 47.595 9.16266 47.0629C9.51822 46.5307 9.708 45.9051 9.708 45.2651C9.708 44.4069 9.36708 43.5839 8.76024 42.9771C8.15341 42.3702 7.33036 42.0293 6.47216 42.0293ZM6.47216 47.2085C6.08781 47.2085 5.71208 47.0945 5.39251 46.881C5.07293 46.6674 4.82384 46.3639 4.67676 46.0088C4.52967 45.6537 4.49119 45.263 4.56617 44.886C4.64115 44.509 4.82624 44.1628 5.09802 43.891C5.3698 43.6192 5.71607 43.4341 6.09304 43.3591C6.47001 43.2842 6.86075 43.3226 7.21584 43.4697C7.57094 43.6168 7.87445 43.8659 8.08799 44.1855C8.30152 44.5051 8.4155 44.8808 8.4155 45.2651C8.4155 45.5203 8.36523 45.773 8.26757 46.0088C8.16991 46.2446 8.02676 46.4588 7.84631 46.6393C7.66585 46.8197 7.45162 46.9629 7.21584 47.0605C6.98007 47.1582 6.72737 47.2085 6.47216 47.2085Z" fill="#165DBA"/>
</g>
<defs>
<clipPath id="clip0_358_219">
<rect width="55" height="55" fill="white"/>
</clipPath>
</defs>
</svg>
